<svg id="Layer_1" data-name="Layer 1" xmlns="http://www.w3.org/2000/svg" viewBox="0 0 1900.27 1028"><defs><style>.cls-1{fill:#cecece;}.cls-2{fill:#fff;}.cls-3{fill:#133155;}.cls-4{fill:none;}.cls-5{fill:#a2a2a2;}</style></defs><title>solid color vector file Grayscale</title><path class="cls-1" d="M165.5,1045.94c0,5.21-.18,5.6-2.36,6.95-11.78,6.56-29.54,8.68-43.68,8.68-44.4,0-83.74-22.38-83.74-75.63,0-30.87,15-52.48,31.54-63.09,17.4-11.19,33.53-12.54,48.76-12.54a205.27,205.27,0,0,1,32.08,3.09,111.65,111.65,0,0,0,14.32,2.12c2.18.19,2.54,1,2.54,2.32,0,2.12-1.27,7.52-1.27,31.64,0,3.09-.54,4.05-2,4.05-1.27,0-1.63-1-1.81-2.51-.54-4.44-1.45-10.61-6.16-16-5.44-6.17-19.94-15-40.42-15-10,0-23.2.77-35.89,12C67.26,941,60.74,955.46,60.74,979.19c0,41.48,24.83,72.54,63.07,72.54,4.71,0,11.06,0,15.41-2.12,2.72-1.35,3.44-3.86,3.44-7.14v-18.14c0-9.65,0-17-.18-22.77-.18-6.56-1.81-9.65-7.79-11a35.14,35.14,0,0,0-7.07-.58c-1.63,0-2.72-.39-2.72-1.54,0-1.54,1.27-1.93,3.81-1.93,9.43,0,20.84.58,26.28.58,5.62,0,15.23-.58,21.21-.58,2.36,0,3.62.39,3.62,1.93,0,1.16-1.09,1.54-2.36,1.54a26.91,26.91,0,0,0-4.89.58c-4.89,1-6.71,4.25-6.89,11-.18,5.79-.18,13.51-.18,23.15Z" transform="translate(-35.73 -166)"/><path class="cls-1" d="M215.71,982.28c0-24.89,0-29.52-.18-34.73-.36-5.6-1.81-7.33-6.89-8.88a27.66,27.66,0,0,0-6.34-.58c-1.63,0-2.72-.58-2.72-1.74s1.27-1.54,3.62-1.54c8.34,0,18.49.39,21.75.39,5.44,0,19.94-.39,24.83-.39,10.15,0,21.75,1,30.27,6.95a29.14,29.14,0,0,1,11.24,22.57c0,12.15-6.52,23-22.11,36.27,14.14,18.52,25.37,33.38,35,43.6,8.88,9.45,14.5,10.23,17,10.8a14,14,0,0,0,3.81.39,1.89,1.89,0,0,1,2,1.74c0,1.35-1.09,1.74-3.08,1.74H308.68c-8.88,0-13.23-1-17.4-3.28-6.89-3.66-12.87-11.38-21.75-24.12-6.34-8.88-13-19.87-15-22.38a3.55,3.55,0,0,0-2.9-1.16l-14.32-.39a1.18,1.18,0,0,0-1.27,1.35v2.32c0,15.24.18,28,.91,34.92.54,4.82,1.27,7.91,6.16,8.68a57,57,0,0,0,7.79.58,1.89,1.89,0,0,1,2,1.74c0,1.16-1.27,1.74-3.26,1.74-9.24,0-22.47-.58-24.83-.58-3.08,0-13.23.58-19.57.58-2,0-3.08-.58-3.08-1.74,0-.77.54-1.74,2.54-1.74a22.14,22.14,0,0,0,5.62-.58c3.26-.77,4.17-3.86,4.71-8.68.73-6.94.73-19.87.73-34.92ZM236,995c0,1.74.36,2.32,1.45,2.89a41.24,41.24,0,0,0,12.14,1.54c6.34,0,8.52-.58,11.24-2.7,4.89-3.66,10.33-10.8,10.33-24.31,0-23.15-14.86-29.13-24.29-29.13a54.31,54.31,0,0,0-9.42.58c-1.09.39-1.45,1-1.45,2.32Z" transform="translate(-35.73 -166)"/><path class="cls-1" d="M346.93,982.28c0-24.89,0-29.52-.18-34.73-.36-5.6-2-7.52-5.44-8.68a19.19,19.19,0,0,0-5.8-.77c-1.63,0-2.54-.39-2.54-1.93,0-1,1.27-1.35,3.81-1.35,6,0,16.86.39,21.39.39,4,0,14.32-.39,20.48-.39,2,0,3.26.39,3.26,1.35,0,1.54-.91,1.93-2.54,1.93a20.86,20.86,0,0,0-4.71.58c-4.35.77-5.62,3.09-6,8.88-.36,5.21-.36,9.84-.36,34.73v28.94c0,15.82,0,28.94.73,35.89.54,4.44,1.63,6.95,6.34,7.72a56.21,56.21,0,0,0,8.16.58c1.81,0,2.54,1,2.54,1.74,0,1.16-1.27,1.74-3.08,1.74-10.51,0-21.39-.58-25.74-.58-3.62,0-14.5.58-20.84.58-2,0-3.08-.58-3.08-1.74,0-.77.54-1.74,2.54-1.74a22.14,22.14,0,0,0,5.62-.58c3.26-.77,4.17-3.09,4.71-7.91.72-6.75.72-19.87.72-35.69Z" transform="translate(-35.73 -166)"/><path class="cls-1" d="M437.55,1036.49c.36,12.73,2.36,16.59,5.44,17.75a25.54,25.54,0,0,0,8.34,1.16c1.81,0,2.72.77,2.72,1.74,0,1.35-1.45,1.74-3.62,1.74-10.33,0-17.76-.58-20.66-.58-1.45,0-9.06.58-17.22.58-2.18,0-3.63-.19-3.63-1.74,0-1,1.09-1.74,2.54-1.74a30.92,30.92,0,0,0,7.25-.77c4.17-1.16,4.71-5.59,4.89-19.87L425,937.52c0-3.28,1.09-5.6,2.72-5.6,2,0,4.17,2.51,6.89,5.4,2,2.12,25.92,28.17,49.12,52.28,10.87,11.38,32.08,34.53,34.44,36.85h.73l-1.63-72.93c-.18-10-1.63-12.93-5.44-14.47-2.36-1-6.16-1-8.34-1-2,0-2.54-.77-2.54-1.74,0-1.35,1.63-1.54,4-1.54,8.34,0,16.86.39,20.3.39,1.81,0,7.79-.39,15.59-.39,2.18,0,3.63.19,3.63,1.54,0,1-.91,1.74-2.72,1.74a15.26,15.26,0,0,0-4.89.58c-4.35,1.35-5.62,4.25-5.8,13.51l-1.81,103.41c0,3.67-1.27,5.21-2.54,5.21-2.72,0-4.89-1.74-6.52-3.47-10-9.84-29.91-30.1-46.58-47.27-17.4-17.75-34.26-37.62-37.34-40.52h-.54Z" transform="translate(-35.73 -166)"/><path class="cls-1" d="M586.9,982.28c0-24.89,0-29.52-.18-34.73-.36-5.6-1.81-7.33-6.89-8.88a27.66,27.66,0,0,0-6.34-.58c-1.63,0-2.72-.58-2.72-1.74s1.27-1.54,3.62-1.54c8.34,0,18.49.39,21.57.39,8,0,18.49-.39,23.92-.39,28.82,0,33.89,15.82,33.89,24.5,0,12.73-8.88,22.57-17.94,28.75,13,4.44,29.36,16.21,29.36,35.5,0,17.56-13,35.69-42.41,35.69-1.81,0-7.25-.19-12.69-.58-5.44-.19-11.06-.39-13.59-.39-1.81,0-5.26.19-9.06.19-3.81.19-7.79.39-11.06.39-2,0-3.08-.58-3.08-1.74,0-.77.54-1.74,2.54-1.74a22.14,22.14,0,0,0,5.62-.58c3.26-.77,4.17-3.86,4.71-8.68.72-6.94.72-19.87.72-34.92Zm20.66,2.7c0,1.35.54,1.54,1.09,1.74a32,32,0,0,0,7.43.58c5.26,0,9.79-.58,12.51-2.89,4.17-3.47,7.25-9.45,7.25-17.36,0-11-6.16-24.7-19.94-24.7a38.11,38.11,0,0,0-6.89.39c-1.09.19-1.45,1-1.45,2.7Zm0,48.23c0,10.8.54,14.08,5.62,16.21a27.79,27.79,0,0,0,11.42,1.93c8.52,0,19.57-5,19.57-23.15a36.67,36.67,0,0,0-15-29.13c-3.26-2.51-7.61-4.24-13.78-4.24h-6.89c-.54,0-.91.19-.91,1.16Z" transform="translate(-35.73 -166)"/><path class="cls-1" d="M702.54,982.28c0-24.89,0-29.52-.18-34.73-.36-5.6-1.81-7.33-6.89-8.88a27.66,27.66,0,0,0-6.34-.58c-1.63,0-2.72-.58-2.72-1.74s1.27-1.54,3.63-1.54c8.34,0,18.49.39,23,.39,5.08,0,40.42.19,43.5,0a64.1,64.1,0,0,0,6.71-1,17.63,17.63,0,0,1,2.54-.77c.91,0,1.09.77,1.09,1.54,0,1.16-.91,3.09-1.27,10.61-.18,1.74-.54,8.88-.91,10.8-.18.77-.54,2.7-1.81,2.7-1.09,0-1.27-.77-1.27-2.12a16.3,16.3,0,0,0-1.09-6c-1.27-2.89-2.54-5.21-10.51-6-2.72-.39-21.75-.77-25-.77-.73,0-1.09.58-1.09,1.54v40.52c0,1,.18,1.74,1.09,1.74,3.63,0,24.29,0,27.91-.39,3.81-.39,6-1,7.61-2.51,1.27-1.16,1.81-2.12,2.54-2.12s1.27.77,1.27,1.74-.36,3.67-1.27,12c-.36,3.28-.73,9.84-.73,11,0,1.35-.18,3.67-1.63,3.67-1.09,0-1.45-.58-1.45-1.35-.18-1.74-.18-3.86-.54-6-.91-3.28-2.9-5.79-8.88-6.37-2.9-.39-21-.77-25-.77-.73,0-.91.77-.91,1.74v13.12c0,5.6-.18,19.49,0,24.31.36,11.19,5.26,13.7,21.57,13.7,4.17,0,10.87-.19,15-2.12,4-1.93,5.8-5.4,6.89-12.15.36-1.74.73-2.51,1.81-2.51,1.27,0,1.45,2.12,1.45,3.86,0,3.67-1.27,14.86-2.18,18.14-1.09,4.24-2.54,4.24-8.52,4.24-12,0-21.57-.19-29.36-.58-7.79-.19-13.78-.39-18.49-.39-1.81,0-5.26.19-9.06.19-3.81.19-7.79.39-11.06.39-2,0-3.08-.58-3.08-1.74,0-.77.54-1.74,2.54-1.74a22.16,22.16,0,0,0,5.62-.58c3.26-.77,4.17-3.86,4.71-8.68.73-6.94.73-19.87.73-34.92Z" transform="translate(-35.73 -166)"/><path class="cls-1" d="M810.2,982.28c0-24.89,0-29.52-.18-34.73-.36-5.6-1.81-7.33-6.89-8.88a27.66,27.66,0,0,0-6.34-.58c-1.63,0-2.72-.58-2.72-1.74s1.27-1.54,3.63-1.54c8.34,0,18.49.39,21.75.39,5.44,0,19.94-.39,24.83-.39,10.15,0,21.75,1,30.27,6.95a29.14,29.14,0,0,1,11.24,22.57c0,12.15-6.52,23-22.11,36.27,14.14,18.52,25.37,33.38,35,43.6,8.88,9.45,14.5,10.23,17,10.8a14,14,0,0,0,3.81.39,1.89,1.89,0,0,1,2,1.74c0,1.35-1.09,1.74-3.08,1.74H903.18c-8.88,0-13.23-1-17.4-3.28-6.89-3.66-12.87-11.38-21.75-24.12-6.34-8.88-13-19.87-15-22.38a3.55,3.55,0,0,0-2.9-1.16l-14.32-.39a1.18,1.18,0,0,0-1.27,1.35v2.32c0,15.24.18,28,.91,34.92.54,4.82,1.27,7.91,6.16,8.68a57,57,0,0,0,7.79.58,1.89,1.89,0,0,1,2,1.74c0,1.16-1.27,1.74-3.26,1.74-9.24,0-22.47-.58-24.83-.58-3.08,0-13.23.58-19.57.58-2,0-3.08-.58-3.08-1.74,0-.77.54-1.74,2.54-1.74a22.15,22.15,0,0,0,5.62-.58c3.26-.77,4.17-3.86,4.71-8.68.73-6.94.73-19.87.73-34.92ZM830.5,995c0,1.74.36,2.32,1.45,2.89a41.24,41.24,0,0,0,12.14,1.54c6.34,0,8.52-.58,11.24-2.7,4.89-3.66,10.33-10.8,10.33-24.31,0-23.15-14.86-29.13-24.29-29.13a54.3,54.3,0,0,0-9.42.58c-1.09.39-1.45,1-1.45,2.32Z" transform="translate(-35.73 -166)"/><path class="cls-1" d="M1037.85,1047.87c0,4.44,0,4.63-2,5.79-10.69,5.59-26.46,7.33-39,7.33-39.15,0-73.77-18.91-73.77-64.25,0-26.24,13.23-44.57,27.91-53.63,15.23-9.45,29.54-10.61,43-10.61a171.11,171.11,0,0,1,28.28,2.7,119.84,119.84,0,0,0,12.69,1.74c1.81.19,2.18.77,2.18,1.93,0,1.93-1.09,6.37-1.09,27,0,2.51-.91,3.67-2.18,3.67-1.09,0-1.45-.77-1.63-2.12a22.57,22.57,0,0,0-5.44-13.51c-4.71-5.21-16.67-12.54-34.62-12.54-8.7,0-19.76.19-30.81,9.65-8.88,7.72-14.68,19.87-14.68,39.94,0,35.31,21.39,61,55.46,61,4.17,0,7.43,0,11.24-1.74,2.36-1.16,3.08-2.89,3.08-5.79v-15c0-8.1,0-14.28-.18-19.29-.18-5.6-1.81-7.33-6.89-8.88a27,27,0,0,0-6.16-.58c-1.45,0-2.54-.77-2.54-1.74,0-1.35,1.27-1.54,3.44-1.54,8.34,0,19.76.39,24.47.39,5.07,0,13.41-.39,18.67-.39,2.18,0,3.26.19,3.26,1.54a1.88,1.88,0,0,1-2,1.74,20.49,20.49,0,0,0-4.35.58c-4.35.77-6,3.09-6.16,8.88-.18,5-.18,11.58-.18,19.68Z" transform="translate(-35.73 -166)"/><path class="cls-1" d="M1164.54,973.21c-7.61-10.8-9.06-18.71-9.24-27.4-.18-15.24,12.51-35.5,44-35.5a58.69,58.69,0,0,1,21.93,4.05c3.08,1.16,3.08,2.7,3.08,5a246.67,246.67,0,0,1-2,24.7c-.36,2.89-1.09,3.28-2.18,3.28s-1.27-.77-1.27-3.66a26.15,26.15,0,0,0-5.26-16.21c-3.62-4.63-10-8.68-20.12-8.68-7.61,0-19.39,5.6-19.39,22,0,18.14,15.59,33.57,30.09,50.74,6.16,7.52,28.46,28.94,31.9,32.22,3.63-5.4,8.7-17.94,8.7-29.71a11.77,11.77,0,0,0-3.44-8.88c-2.36-2.31-6.16-2.89-8.88-2.89-1.09,0-2.18-.39-2.18-1.54,0-1.54,1.45-1.93,2.9-1.93a190.9,190.9,0,0,1,21.75,1.35c3.44.39,6.16,1.54,6.16,3.86,0,14.86-7.43,32.8-17.76,45.72a186.92,186.92,0,0,0,25.19,18.91c5.8,3.66,15.77,6.75,19.39,6.75,1.63,0,2.54.19,2.54,1.74,0,1.16-1.45,1.74-5.44,1.74h-14c-20.66,0-27.19-2.12-42.77-14.86-6,5.79-18.13,17.56-43,17.56-38.79,0-50.39-25.85-50.39-42.64C1135,996.36,1153.66,978.8,1164.54,973.21Zm56.73,64.63c-10.51-9.65-27.91-27.78-32.62-33.18s-16.31-19.29-19.39-24.12c-6.16,4.82-12.5,13.89-12.5,29.33,0,24.12,15.95,39.55,34.8,39.55C1205.5,1049.42,1217.46,1041.7,1221.27,1037.84Z" transform="translate(-35.73 -166)"/><path class="cls-1" d="M1362.82,1056.56c-2.9-1.35-3.44-2.32-3.44-6.56,0-10.61.73-22.19.91-25.27.18-2.89.73-5,2.18-5,1.63,0,1.81,1.74,1.81,3.28a43.11,43.11,0,0,0,1.63,9.84c4,14.28,14.68,19.49,25.92,19.49,16.31,0,24.29-11.77,24.29-22,0-9.45-2.72-18.33-17.76-30.87L1390,992.5c-19.94-16.59-26.82-30.1-26.82-45.72,0-21.22,16.67-36.46,41.87-36.46a82.78,82.78,0,0,1,24.11,3.28c1.63.39,2.54,1,2.54,2.32,0,2.51-.73,8.1-.73,23.15,0,4.25-.54,5.79-2,5.79-1.27,0-1.81-1.16-1.81-3.47a24.3,24.3,0,0,0-4.71-12.73c-2.72-3.67-8-9.45-19.76-9.45-13.41,0-21.57,8.3-21.57,19.87,0,8.88,4.17,15.63,19.21,27.78l5.08,4.05c21.93,17.56,29.72,30.87,29.72,49.2,0,11.19-4,24.5-17,33.57-9.06,6.17-19.21,7.91-28.82,7.91C1378.77,1061.57,1370.61,1060.22,1362.82,1056.56Z" transform="translate(-35.73 -166)"/><path class="cls-1" d="M1477.91,982.28c0-24.89,0-29.52-.18-34.73-.36-5.6-1.81-7.33-6.89-8.88a27.66,27.66,0,0,0-6.34-.58c-1.63,0-2.72-.58-2.72-1.74s1.27-1.54,3.63-1.54c8.34,0,18.49.39,23,.39,5.08,0,40.42.19,43.5,0a64.1,64.1,0,0,0,6.71-1,17.63,17.63,0,0,1,2.54-.77c.91,0,1.09.77,1.09,1.54,0,1.16-.91,3.09-1.27,10.61-.18,1.74-.54,8.88-.91,10.8-.18.77-.54,2.7-1.81,2.7-1.09,0-1.27-.77-1.27-2.12a16.3,16.3,0,0,0-1.09-6c-1.27-2.89-2.54-5.21-10.51-6-2.72-.39-21.75-.77-25-.77-.73,0-1.09.58-1.09,1.54v40.52c0,1,.18,1.74,1.09,1.74,3.63,0,24.29,0,27.91-.39,3.81-.39,6-1,7.61-2.51,1.27-1.16,1.81-2.12,2.54-2.12s1.27.77,1.27,1.74-.36,3.67-1.27,12c-.36,3.28-.73,9.84-.73,11,0,1.35-.18,3.67-1.63,3.67-1.09,0-1.45-.58-1.45-1.35-.18-1.74-.18-3.86-.54-6-.91-3.28-2.9-5.79-8.88-6.37-2.9-.39-21-.77-25-.77-.73,0-.91.77-.91,1.74v13.12c0,5.6-.18,19.49,0,24.31.36,11.19,5.26,13.7,21.57,13.7,4.17,0,10.87-.19,15-2.12,4-1.93,5.8-5.4,6.89-12.15.36-1.74.73-2.51,1.81-2.51,1.27,0,1.45,2.12,1.45,3.86,0,3.67-1.27,14.86-2.18,18.14-1.09,4.24-2.54,4.24-8.52,4.24-12,0-21.57-.19-29.36-.58-7.79-.19-13.78-.39-18.49-.39-1.81,0-5.26.19-9.06.19-3.81.19-7.79.39-11.06.39-2,0-3.08-.58-3.08-1.74,0-.77.54-1.74,2.54-1.74a22.16,22.16,0,0,0,5.62-.58c3.26-.77,4.17-3.86,4.71-8.68.73-6.94.73-19.87.73-34.92Z" transform="translate(-35.73 -166)"/><path class="cls-1" d="M1686.53,1047.87c0,4.44,0,4.63-2,5.79-10.69,5.59-26.46,7.33-39,7.33-39.15,0-73.77-18.91-73.77-64.25,0-26.24,13.23-44.57,27.91-53.63,15.23-9.45,29.54-10.61,43-10.61a171.11,171.11,0,0,1,28.28,2.7,119.84,119.84,0,0,0,12.69,1.74c1.81.19,2.18.77,2.18,1.93,0,1.93-1.09,6.37-1.09,27,0,2.51-.91,3.67-2.18,3.67-1.09,0-1.45-.77-1.63-2.12a22.57,22.57,0,0,0-5.44-13.51c-4.71-5.21-16.67-12.54-34.62-12.54-8.7,0-19.76.19-30.81,9.65-8.88,7.72-14.68,19.87-14.68,39.94,0,35.31,21.39,61,55.46,61,4.17,0,7.43,0,11.24-1.74,2.36-1.16,3.08-2.89,3.08-5.79v-15c0-8.1,0-14.28-.18-19.29-.18-5.6-1.81-7.33-6.89-8.88a27,27,0,0,0-6.16-.58c-1.45,0-2.54-.77-2.54-1.74,0-1.35,1.27-1.54,3.44-1.54,8.34,0,19.76.39,24.47.39,5.07,0,13.41-.39,18.67-.39,2.18,0,3.26.19,3.26,1.54a1.88,1.88,0,0,1-2,1.74,20.49,20.49,0,0,0-4.35.58c-4.35.77-6,3.09-6.16,8.88-.18,5-.18,11.58-.18,19.68Z" transform="translate(-35.73 -166)"/><path class="cls-1" d="M1744.89,1017.39c-.91,0-1.09.19-1.45,1.16l-8.52,22.19a31.33,31.33,0,0,0-2.36,10c0,2.89,1.45,4.63,6.34,4.63h2.36c2,0,2.36.77,2.36,1.74,0,1.35-.91,1.74-2.54,1.74-5.26,0-12.69-.58-17.76-.58-1.63,0-10.15.58-18.49.58-2,0-2.9-.39-2.9-1.74a1.62,1.62,0,0,1,1.81-1.74c1.45,0,3.26-.19,4.71-.19,7.25-1.16,10-6.17,13.23-14.47l41.69-102.45c1.81-4.63,3.08-6.56,4.71-6.56,2.36,0,3.08,1.54,4.71,5.21,3.81,9.07,30.45,75.44,40.6,100.32,6.16,14.86,10.69,17,13.59,17.56a36.25,36.25,0,0,0,6,.58q2.17,0,2.17,1.74c0,1.35-.91,1.74-6.89,1.74-5.62,0-17.22,0-30.63-.39-2.9-.19-4.71-.19-4.71-1.35,0-1,.36-1.54,2-1.74,1.09-.19,2.18-1.74,1.45-3.67L1784,1018.55a1.51,1.51,0,0,0-1.63-1.16Zm34.07-9.07c.73,0,.91-.39.73-1l-15-41.09c-.18-.58-.36-1.54-.73-1.54-.54,0-.73,1-.91,1.54l-15.41,40.9c-.36.77,0,1.16.54,1.16Z" transform="translate(-35.73 -166)"/><path class="cls-1" d="M1880.82,1011.22c0,21,0,31.45,3.44,34.53,2.72,2.51,8.88,3.47,21.21,3.47,8.52,0,14.68-.19,18.67-4.63,2-2.12,3.63-6.75,4-9.84.18-1.54.54-2.51,1.81-2.51,1.09,0,1.45,1.74,1.45,3.67s-1.09,14.08-2.36,18.91c-1.09,3.66-1.81,4.44-10.15,4.44-11.42,0-20.66-.19-28.64-.58-8-.19-14.68-.39-21.21-.39-1.81,0-5.26.19-9.06.19-3.81.19-7.79.39-11.06.39-2,0-3.08-.58-3.08-1.74,0-.77.54-1.74,2.54-1.74a22.16,22.16,0,0,0,5.62-.58c3.26-.77,4.17-3.86,4.71-8.68.73-6.94.73-19.87.73-34.92V982.28c0-24.89,0-29.52-.18-34.73-.36-5.6-1.81-7.33-6.89-8.88a20,20,0,0,0-5.26-.58q-2.72,0-2.72-1.74c0-1.16,1.09-1.54,3.44-1.54,7.43,0,17.58.39,21.93.39,3.81,0,16.86-.39,23-.39,2.36,0,3.44.39,3.44,1.54s-.91,1.74-2.9,1.74a33.31,33.31,0,0,0-6.16.58c-4.35.77-5.62,3.09-6,8.88-.36,5.21-.36,9.84-.36,34.73Z" transform="translate(-35.73 -166)"/><path class="cls-2" d="M780.17,1129c0-20.58,0-24.37-.25-28.7-.25-4.6-1.27-6.77-5.47-7.72a24.58,24.58,0,0,0-5-.41c-1.4,0-2.16-.27-2.16-1.22s.89-1.22,2.8-1.22c6.74,0,14.76.41,18.32.41,5.22,0,12.59-.41,18.44-.41,15.9,0,21.62,5.69,23.66,7.72a24.26,24.26,0,0,1,6.36,16.11c0,19.23-13.23,32.77-31.29,32.77a17.63,17.63,0,0,1-2.67-.14c-.64-.14-1.53-.27-1.53-1.22s.89-1.49,3.56-1.49c7.12,0,17-8.53,17-22.34,0-4.47-.38-13.54-7.5-20.31a18.23,18.23,0,0,0-12.72-5.28,17,17,0,0,0-5,.54c-.64.27-1,1.08-1,2.57v54.16c0,12.46,0,23.15.64,29,.38,3.79,1.14,6.77,5,7.31a50.34,50.34,0,0,0,6.49.54c1.4,0,2,.4,2,1.08,0,.95-1,1.35-2.42,1.35-8.39,0-16.41-.41-19.72-.41-2.93,0-10.94.41-16,.41-1.65,0-2.54-.41-2.54-1.35,0-.68.51-1.08,2-1.08a19.54,19.54,0,0,0,4.58-.54c2.54-.54,3.18-3.52,3.69-7.45.64-5.69.64-16.38.64-28.84Z" transform="translate(-35.73 -166)"/><path class="cls-2" d="M839.06,1183.44c0-3.39,2.29-8.26,7.76-8.26a7.54,7.54,0,0,1,7.76,7.85c0,4.74-3.05,8.67-7.89,8.67C841.35,1191.7,839.06,1187.23,839.06,1183.44Z" transform="translate(-35.73 -166)"/><path class="cls-2" d="M904.31,1152.84c0,17.33,0,26.67,2.67,29.11,2.16,2,5.47,3,15.39,3,6.74,0,11.7-.13,14.88-3.79a17.55,17.55,0,0,0,3.31-8.12c.13-1.22.38-2,1.4-2s1,.68,1,2.3-.89,11.64-1.91,15.57c-.76,3-1.4,3.66-8,3.66-9.16,0-15.77-.27-21.5-.4s-10.3-.41-15.52-.41c-1.4,0-4.2,0-7.25.14s-6.23.27-8.78.27c-1.65,0-2.54-.41-2.54-1.35,0-.68.51-1.08,2-1.08a19.54,19.54,0,0,0,4.58-.54c2.54-.54,3.18-3.52,3.69-7.45.64-5.69.64-16.38.64-28.84V1129c0-20.58,0-24.37-.25-28.7-.25-4.6-1.27-6.77-5.47-7.72a17.75,17.75,0,0,0-4.2-.41c-1.4,0-2.16-.27-2.16-1.22s.89-1.22,2.8-1.22c6,0,14,.41,17.43.41,3.05,0,12.34-.41,17.3-.41,1.78,0,2.67.27,2.67,1.22s-.76,1.22-2.29,1.22a31.82,31.82,0,0,0-5,.41c-3.43.68-4.45,3-4.71,7.72-.25,4.33-.25,8.12-.25,28.7Z" transform="translate(-35.73 -166)"/><path class="cls-2" d="M957.48,1183.44c0-3.39,2.29-8.26,7.76-8.26A7.54,7.54,0,0,1,973,1183c0,4.74-3.05,8.67-7.89,8.67C959.77,1191.7,957.48,1187.23,957.48,1183.44Z" transform="translate(-35.73 -166)"/><path class="cls-2" d="M1022.74,1152.84c0,17.33,0,26.67,2.67,29.11,2.16,2,5.47,3,15.39,3,6.74,0,11.7-.13,14.88-3.79A17.57,17.57,0,0,0,1059,1173c.13-1.22.38-2,1.4-2s1,.68,1,2.3-.89,11.64-1.91,15.57c-.76,3-1.4,3.66-8,3.66-9.16,0-15.77-.27-21.5-.4s-10.3-.41-15.52-.41c-1.4,0-4.2,0-7.25.14s-6.23.27-8.78.27c-1.65,0-2.54-.41-2.54-1.35,0-.68.51-1.08,2-1.08a19.52,19.52,0,0,0,4.58-.54c2.54-.54,3.18-3.52,3.69-7.45.64-5.69.64-16.38.64-28.84V1129c0-20.58,0-24.37-.25-28.7-.25-4.6-1.27-6.77-5.47-7.72a17.74,17.74,0,0,0-4.2-.41c-1.4,0-2.16-.27-2.16-1.22s.89-1.22,2.8-1.22c6,0,14,.41,17.43.41,3.05,0,12.34-.41,17.3-.41,1.78,0,2.67.27,2.67,1.22s-.76,1.22-2.29,1.22a31.79,31.79,0,0,0-5,.41c-3.43.68-4.45,3-4.71,7.72-.25,4.33-.25,8.12-.25,28.7Z" transform="translate(-35.73 -166)"/><path class="cls-2" d="M1075.9,1183.44c0-3.39,2.29-8.26,7.76-8.26a7.54,7.54,0,0,1,7.76,7.85c0,4.74-3.05,8.67-7.89,8.67C1078.19,1191.7,1075.9,1187.23,1075.9,1183.44Z" transform="translate(-35.73 -166)"/><path class="cls-2" d="M1127.17,1179.24c-12.46-11.65-15.77-26.81-15.77-39.94,0-9.21,2.67-25.18,14.88-37.1,9.16-8.93,21.24-14.35,40.2-14.35a118.13,118.13,0,0,1,18.44,1.35c4.83.68,8.9,1.89,12.72,2.3,1.4.14,1.91.81,1.91,1.63,0,1.08-.38,2.71-.64,7.45-.25,4.47-.13,11.91-.38,14.62-.13,2-.38,3.11-1.53,3.11s-1.27-1.08-1.27-3a20,20,0,0,0-5-12.46c-4.2-4.74-14.12-8.39-25.82-8.39-11.07,0-18.32,3-23.91,8.39-9.29,9.07-11.7,21.93-11.7,35.07,0,32.22,23,48.2,40.07,48.2,11.32,0,18.19-1.35,23.28-7.58a23.15,23.15,0,0,0,4.32-8.94c.38-2.17.64-2.71,1.65-2.71s1.14.95,1.14,2a136.29,136.29,0,0,1-2.8,18c-.64,2.3-1.14,3-3.31,3.93-5.09,2.17-14.75,3.11-22.9,3.11C1153.37,1194,1138.74,1189.94,1127.17,1179.24Z" transform="translate(-35.73 -166)"/><polygon class="cls-2" points="1900.28 976.54 1187.91 999.65 1187.91 946.03 1900.28 976.54 1900.28 976.54"/><polygon class="cls-2" points="0.19 976.54 714.44 999.65 714.44 946.03 0.19 976.54 0.19 976.54"/><path class="cls-2" d="M87.65,764.16l-24.81.71c-9.66.35-13.65,1.24-16.15,5.14a21.63,21.63,0,0,0-2.83,6.2c-.33,1.42-.83,2.13-1.83,2.13-1.17,0-1.5-.89-1.5-2.83,0-2.84,3.16-19,3.5-20.38.5-2.3,1-3.37,2-3.37,1.33,0,3,1.77,7.16,2.13a163.65,163.65,0,0,0,16.65.89h65.93a75,75,0,0,0,11.49-.89,37.83,37.83,0,0,1,4.5-.89c1.17,0,1.33,1.06,1.33,3.72,0,3.72-.5,15.95-.5,20.56-.17,1.77-.5,2.83-1.5,2.83-1.33,0-1.66-.89-1.83-3.54l-.17-1.95c-.33-4.61-4.83-9.57-19.65-9.92l-21-.53v72.66c0,16.31,0,30.31.83,37.93.5,5,1.5,8.86,6.49,9.57a66,66,0,0,0,8.49.71c1.83,0,2.66.53,2.66,1.42,0,1.24-1.33,1.77-3.16,1.77-11,0-21.48-.53-26.14-.53-3.83,0-14.32.53-21,.53-2.16,0-3.33-.53-3.33-1.77,0-.89.67-1.42,2.66-1.42a25.59,25.59,0,0,0,6-.71c3.33-.71,4.33-4.61,4.83-9.75.83-7.44.83-21.44.83-37.75Z" transform="translate(-35.73 -166)"/><path class="cls-2" d="M262.63,823.36c.33,0,.83-.18.83-1.06V819.1c0-22.86-.17-28.36-.33-33.14-.33-5.14-1.66-6.74-6.33-8.15a24.81,24.81,0,0,0-5.66-.53q-2.5,0-2.5-1.6c0-1.06,1-1.42,3.16-1.42,7.82,0,18.15.35,22,.35,3.5,0,13.15-.35,18.81-.35,2.16,0,3.16.35,3.16,1.42s-1,1.6-2.66,1.6a23.1,23.1,0,0,0-4.33.53c-3.83.71-5,2.84-5.33,8.15-.33,4.79-.33,9-.33,31.9v26.58c0,13.82,0,25.7.67,32.25.5,4.25,1.33,7.09,5.83,7.8a49.83,49.83,0,0,0,7.49.53c1.5,0,2.33.89,2.33,1.6,0,1.06-1.17,1.59-3,1.59-9.49,0-19.15-.53-23.14-.53-3.33,0-13.65.53-19.31.53-2,0-3.16-.53-3.16-1.59,0-.71.67-1.6,2.33-1.6a20.85,20.85,0,0,0,5.33-.53c3-.71,3.83-3.54,4.33-8,.67-6.38.67-17.9.67-31.72V833.28a.92.92,0,0,0-.83-.89H207.36c-.5,0-1,.18-1,.89V844.8c0,13.82.17,25.34.83,31.9.5,4.25,1.33,7.09,5.66,7.8a51.5,51.5,0,0,0,7.49.53c1.66,0,2.33.89,2.33,1.6,0,1.06-1.17,1.59-3,1.59-9.49,0-19.65-.53-23.81-.53-3.33,0-13,.53-18.81.53-1.83,0-2.83-.53-2.83-1.59,0-.71.5-1.6,2.33-1.6a20.29,20.29,0,0,0,5.16-.53c3-.71,3.83-3.54,4.33-8,.67-6.38.67-18.25.67-32.08V817.86c0-22.86,0-27.11-.17-31.9-.33-5.14-1.66-6.74-6.33-8.15a25.41,25.41,0,0,0-5.83-.53c-1.5,0-2.5-.53-2.5-1.6s1.17-1.42,3.16-1.42c7.82,0,17.48.35,21.48.35,3.5,0,13.65-.35,19.48-.35,2,0,3,.35,3,1.42s-.83,1.6-2.66,1.6a20.2,20.2,0,0,0-4.16.53c-4,.71-5.16,2.84-5.49,8.15-.33,4.79-.33,10.28-.33,33.14v3.19c0,.89.5,1.06,1,1.06Z" transform="translate(-35.73 -166)"/><path class="cls-2" d="M337.39,817.86c0-22.86,0-27.11-.17-31.9-.33-5.14-1.66-6.74-6.33-8.15a25.41,25.41,0,0,0-5.83-.53c-1.5,0-2.5-.53-2.5-1.6s1.17-1.42,3.33-1.42c7.66,0,17,.35,21.14.35,4.66,0,37.13.18,40,0a59,59,0,0,0,6.16-.89,16.21,16.21,0,0,1,2.33-.71c.83,0,1,.71,1,1.42,0,1.06-.83,2.84-1.17,9.75-.17,1.59-.5,8.15-.83,9.92-.17.71-.5,2.48-1.66,2.48-1,0-1.17-.71-1.17-1.95a15,15,0,0,0-1-5.49c-1.17-2.66-2.33-4.79-9.66-5.49-2.5-.35-20-.71-23-.71-.67,0-1,.53-1,1.42v37.22c0,.89.17,1.6,1,1.6,3.33,0,22.31,0,25.64-.35,3.5-.35,5.49-.89,7-2.3,1.16-1.06,1.66-1.95,2.33-1.95s1.17.71,1.17,1.59-.33,3.37-1.17,11c-.33,3-.67,9-.67,10.1,0,1.24-.17,3.37-1.5,3.37-1,0-1.33-.53-1.33-1.24-.17-1.59-.17-3.54-.5-5.49-.83-3-2.66-5.32-8.16-5.85-2.66-.35-19.31-.71-23-.71-.67,0-.83.71-.83,1.59V845c0,5.14-.17,17.9,0,22.33.33,10.28,4.83,12.58,19.81,12.58,3.83,0,10-.18,13.82-1.95,3.66-1.77,5.33-5,6.33-11.17.33-1.6.67-2.3,1.66-2.3,1.17,0,1.33,1.95,1.33,3.54a108.16,108.16,0,0,1-2,16.66c-1,3.9-2.33,3.9-7.82,3.9-11,0-19.81-.18-27-.53-7.16-.18-12.65-.35-17-.35-1.66,0-4.83.18-8.32.18-3.5.18-7.16.35-10.16.35-1.83,0-2.83-.53-2.83-1.59,0-.71.5-1.6,2.33-1.6a20.29,20.29,0,0,0,5.16-.53c3-.71,3.83-3.54,4.33-8,.67-6.38.67-18.25.67-32.08Z" transform="translate(-35.73 -166)"/><path class="cls-2" d="M520,836.82c0,22.68,0,34.91,3.5,38.1,2.83,2.66,7.16,3.9,20.14,3.9,8.82,0,15.32-.18,19.48-5a23,23,0,0,0,4.33-10.63c.17-1.6.5-2.66,1.83-2.66,1.16,0,1.33.89,1.33,3,0,1.95-1.17,15.24-2.5,20.38-1,3.9-1.83,4.79-10.49,4.79-12,0-20.64-.35-28.14-.53-7.49-.35-13.49-.53-20.31-.53-1.83,0-5.49,0-9.49.18-3.83,0-8.16.35-11.49.35-2.16,0-3.33-.53-3.33-1.77,0-.89.67-1.42,2.66-1.42a25.59,25.59,0,0,0,6-.71c3.33-.71,4.16-4.61,4.83-9.75.83-7.44.83-21.44.83-37.75V805.63c0-26.94,0-31.9-.33-37.57-.33-6-1.66-8.86-7.16-10.1a23.24,23.24,0,0,0-5.49-.53c-1.83,0-2.83-.35-2.83-1.59s1.17-1.6,3.66-1.6c7.82,0,18.31.53,22.81.53,4,0,16.15-.53,22.64-.53,2.33,0,3.5.35,3.5,1.6s-1,1.59-3,1.59a41.68,41.68,0,0,0-6.49.53c-4.5.89-5.83,3.9-6.16,10.1-.33,5.67-.33,10.63-.33,37.57Z" transform="translate(-35.73 -166)"/><path class="cls-2" d="M612.59,850.12c-.83,0-1,.18-1.33,1.06l-7.82,20.38a28.76,28.76,0,0,0-2.17,9.22c0,2.66,1.33,4.25,5.83,4.25h2.16c1.83,0,2.16.71,2.16,1.6,0,1.24-.83,1.59-2.33,1.59-4.83,0-11.65-.53-16.31-.53-1.5,0-9.32.53-17,.53-1.83,0-2.66-.35-2.66-1.59a1.49,1.49,0,0,1,1.66-1.6c1.33,0,3-.18,4.33-.18,6.66-1.06,9.16-5.67,12.15-13.29l38.29-94.11c1.66-4.25,2.83-6,4.33-6,2.16,0,2.83,1.42,4.33,4.78,3.5,8.33,28,69.29,37.29,92.16C681.18,882,685.35,884,688,884.5a33.18,33.18,0,0,0,5.49.53q2,0,2,1.6c0,1.24-.83,1.59-6.33,1.59-5.16,0-15.82,0-28.14-.35-2.66-.18-4.33-.18-4.33-1.24,0-.89.33-1.42,1.83-1.6,1-.18,2-1.6,1.33-3.37l-11.32-30.48a1.39,1.39,0,0,0-1.5-1.06Zm31.3-8.33c.67,0,.83-.35.67-.89l-13.82-37.75c-.17-.53-.33-1.42-.67-1.42-.5,0-.67.89-.83,1.42l-14.15,37.57c-.33.71,0,1.06.5,1.06Z" transform="translate(-35.73 -166)"/><path class="cls-2" d="M696.83,789c-1.83-5.49-3-9-5.16-10.46-1.5-1.06-4.33-1.24-5.66-1.24-1.5,0-2.33-.53-2.33-1.6s1.16-1.42,3.33-1.42c7.49,0,15.65.35,17,.35s8.49-.35,17-.35c2.17,0,3.16.35,3.16,1.42s-1.17,1.6-2.66,1.6a9,9,0,0,0-3.66.71c-1.33.53-1.5,1.42-1.5,3,0,2,1.33,6.91,3.16,13.82,2.5,9.92,15.82,55.47,18,62.38h.5l28-77.09c1.5-4.25,3-5.49,4.33-5.49,1.66,0,3,2.3,4.83,7.09l29.3,74.43h.5c2.83-8.68,14-48.38,19.15-65.93a34.39,34.39,0,0,0,1.5-8.68c0-2.48-1.33-4.25-7.16-4.25-1.33,0-2.5-.71-2.5-1.6,0-1.06,1.17-1.42,3.5-1.42,7.66,0,14.32.35,15.65.35,1,0,7.33-.35,12.15-.35,1.66,0,2.66.35,2.66,1.24,0,1.06-.67,1.77-2,1.77a18,18,0,0,0-5.16.71c-3.5,1.42-5.16,7.09-8.16,15.77-6.83,19-21.81,66.81-29,89.32-1.66,5.32-2.5,7.09-4.66,7.09-2,0-3-1.77-5.16-7.27l-29.8-74.43h-.33c-2.5,6.38-22.14,59.9-28.14,73.72-2.66,6.2-3.5,8-5.66,8-1.83,0-2.66-1.6-4-5.49Z" transform="translate(-35.73 -166)"/><path class="cls-2" d="M917.1,821.23c0-30.31,18.81-69.47,68.76-69.47,41.46,0,67.26,25.7,67.26,66.28s-26.64,72.66-68.93,72.66C936.41,890.7,917.1,852.6,917.1,821.23Zm112.71,3.37c0-39.7-21.48-64.33-48.78-64.33-19.15,0-41,11.34-41,55.47,0,36.86,19.15,66.1,51.11,66.1C1002.84,881.84,1029.81,875.81,1029.81,824.6Z" transform="translate(-35.73 -166)"/><path class="cls-2" d="M1105.57,845c0,14.53.16,25.17.83,31.55.5,4.43,1.5,7.27,5.83,8a48.62,48.62,0,0,0,7.16.53c1.83,0,2.5.89,2.5,1.6,0,1.06-1,1.59-3.16,1.59-9.33,0-19.65-.53-23.48-.53s-13.15.53-18.64.53c-2,0-3-.35-3-1.59,0-.71.5-1.6,2.17-1.6a20.31,20.31,0,0,0,5.16-.53c3-.71,3.83-3.54,4.33-8,.66-6.38.66-17.54.66-32.08V817.86c0-22.86,0-27.11-.16-31.9-.33-5.14-1.66-6.91-6.32-8.15a25.44,25.44,0,0,0-5.83-.53c-1.33,0-2.5-.53-2.5-1.6s1.17-1.42,3.5-1.42c7.49,0,16.82.35,21,.35,5.66,0,38.12.18,41.62,0a38.14,38.14,0,0,0,6-.71c.83-.18,1.5-.89,2.33-.89.5,0,1,.71,1,1.42,0,1.06-.66,2.84-1.16,6.74-.17,1.6-.5,10.46-.67,12.23-.17,1.24-.5,3-1.5,3s-1.83-.71-1.83-2.48a12.68,12.68,0,0,0-.83-5.67c-1-2.13-3.83-4.43-9.33-4.61l-24.31-.53c-.83,0-1.33.35-1.33,2.13v36.51c0,.89.16,1.42,1,1.42L1127,823c2.5,0,4.5,0,6.66-.18,2.67-.18,4.83-.71,6.16-2.66.83-.89,1.17-1.59,2-1.59.5,0,.83.53.83,1.42s-.66,5-1.16,9.75c-.33,3-.5,9.92-.5,11,0,1.24-.17,3.37-1.67,3.37-.83,0-1.33-1.06-1.33-2.13a14.56,14.56,0,0,0-1-4.61,7.56,7.56,0,0,0-7-5.49c-3.66-.35-21-.53-23.47-.53-.67,0-1,.18-1,1.24Z" transform="translate(-35.73 -166)"/><path class="cls-2" d="M1203,845c0,14.53.16,25.17.83,31.55.5,4.43,1.5,7.27,5.83,8a48.62,48.62,0,0,0,7.16.53c1.83,0,2.5.89,2.5,1.6,0,1.06-1,1.59-3.16,1.59-9.33,0-19.65-.53-23.48-.53s-13.15.53-18.64.53c-2,0-3-.35-3-1.59,0-.71.5-1.6,2.17-1.6a20.31,20.31,0,0,0,5.16-.53c3-.71,3.83-3.54,4.33-8,.66-6.38.66-17.54.66-32.08V817.86c0-22.86,0-27.11-.16-31.9-.33-5.14-1.66-6.91-6.32-8.15a25.44,25.44,0,0,0-5.83-.53c-1.33,0-2.5-.53-2.5-1.6s1.17-1.42,3.5-1.42c7.49,0,16.82.35,21,.35,5.66,0,38.12.18,41.62,0a38.14,38.14,0,0,0,6-.71c.83-.18,1.5-.89,2.33-.89.5,0,1,.71,1,1.42,0,1.06-.66,2.84-1.16,6.74-.17,1.6-.5,10.46-.67,12.23-.17,1.24-.5,3-1.5,3s-1.83-.71-1.83-2.48a12.68,12.68,0,0,0-.83-5.67c-1-2.13-3.83-4.43-9.33-4.61l-24.31-.53c-.83,0-1.33.35-1.33,2.13v36.51c0,.89.16,1.42,1,1.42l20.48-.18c2.5,0,4.5,0,6.66-.18,2.67-.18,4.83-.71,6.16-2.66.83-.89,1.17-1.59,2-1.59.5,0,.83.53.83,1.42s-.66,5-1.16,9.75c-.33,3-.5,9.92-.5,11,0,1.24-.17,3.37-1.67,3.37-.83,0-1.33-1.06-1.33-2.13a14.56,14.56,0,0,0-1-4.61,7.56,7.56,0,0,0-7-5.49c-3.66-.35-21-.53-23.47-.53-.67,0-1,.18-1,1.24Z" transform="translate(-35.73 -166)"/><path class="cls-2" d="M1280.71,817.86c0-22.86,0-27.11-.16-31.9-.33-5.14-1.83-6.91-5-8a17.61,17.61,0,0,0-5.33-.71c-1.5,0-2.33-.35-2.33-1.77,0-.89,1.17-1.24,3.5-1.24,5.49,0,15.48.35,19.64.35,3.66,0,13.15-.35,18.81-.35,1.83,0,3,.35,3,1.24,0,1.42-.83,1.77-2.33,1.77a19.16,19.16,0,0,0-4.33.53c-4,.71-5.16,2.84-5.49,8.15-.33,4.79-.33,9-.33,31.9v26.58c0,14.53,0,26.58.66,33,.5,4.08,1.5,6.38,5.83,7.09a51.45,51.45,0,0,0,7.49.53c1.67,0,2.33.89,2.33,1.6,0,1.06-1.16,1.59-2.83,1.59-9.65,0-19.64-.53-23.64-.53-3.33,0-13.32.53-19.15.53-1.83,0-2.83-.53-2.83-1.59,0-.71.5-1.6,2.33-1.6a20.31,20.31,0,0,0,5.16-.53c3-.71,3.83-2.84,4.33-7.27.66-6.2.66-18.25.66-32.79Z" transform="translate(-35.73 -166)"/><path class="cls-2" d="M1355.47,873.86c-14.49-12.94-18.32-29.95-18.32-44.48,0-10.28,3.16-28,17.15-41.29,10.66-9.92,24.64-16,46.45-16a141.4,141.4,0,0,1,21.31,1.6c5.5.89,10.32,1.95,14.65,2.48,1.67.18,2.17.89,2.17,1.77,0,1.24-.33,3-.66,8.33-.33,5-.33,13.29-.5,16.3-.16,2.13-.66,3.72-2,3.72-1.16,0-1.5-1.24-1.5-3.19a21.91,21.91,0,0,0-5.66-14c-5-5.14-14.82-8.86-28.3-8.86-12.82,0-21,2.48-27.64,8.51-10.82,9.92-13.48,24.46-13.48,39.17,0,35.8,26,52.81,45.62,52.81,13,0,20.14-1.06,26-8a24.94,24.94,0,0,0,5-10.1c.33-2.3.67-3,1.83-3,1,0,1.67,1.42,1.67,2.66,0,1.77-1.67,14.89-3.16,20-.66,2.66-1.33,3.37-3.83,4.43-5.83,2.48-17,3.37-26.47,3.37C1385.77,890.17,1368.79,885.74,1355.47,873.86Z" transform="translate(-35.73 -166)"/><path class="cls-2" d="M1476.84,817.86c0-22.86,0-27.11-.16-31.9-.33-5.14-1.66-6.74-6.32-8.15a25.44,25.44,0,0,0-5.83-.53c-1.5,0-2.5-.53-2.5-1.6s1.17-1.42,3.33-1.42c7.66,0,17,.35,21.15.35,4.66,0,37.12.18,40,0a58.83,58.83,0,0,0,6.16-.89,16.33,16.33,0,0,1,2.33-.71c.83,0,1,.71,1,1.42,0,1.06-.83,2.84-1.16,9.75-.17,1.59-.5,8.15-.83,9.92-.16.71-.5,2.48-1.67,2.48-1,0-1.16-.71-1.16-1.95a14.92,14.92,0,0,0-1-5.49c-1.17-2.66-2.33-4.79-9.66-5.49-2.5-.35-20-.71-23-.71-.66,0-1,.53-1,1.42v37.22c0,.89.16,1.6,1,1.6,3.33,0,22.31,0,25.64-.35,3.49-.35,5.5-.89,7-2.3,1.16-1.06,1.66-1.95,2.33-1.95s1.16.71,1.16,1.59-.33,3.37-1.16,11c-.33,3-.67,9-.67,10.1,0,1.24-.16,3.37-1.5,3.37-1,0-1.33-.53-1.33-1.24-.16-1.59-.16-3.54-.5-5.49-.83-3-2.66-5.32-8.16-5.85-2.66-.35-19.31-.71-23-.71-.67,0-.83.71-.83,1.59V845c0,5.14-.16,17.9,0,22.33.33,10.28,4.83,12.58,19.81,12.58,3.83,0,10-.18,13.82-1.95,3.66-1.77,5.33-5,6.32-11.17.33-1.6.67-2.3,1.67-2.3,1.16,0,1.33,1.95,1.33,3.54a108,108,0,0,1-2,16.66c-1,3.9-2.33,3.9-7.82,3.9-11,0-19.81-.18-27-.53-7.16-.18-12.65-.35-17-.35-1.67,0-4.83.18-8.33.18-3.49.18-7.16.35-10.15.35-1.83,0-2.83-.53-2.83-1.59,0-.71.5-1.6,2.33-1.6a20.32,20.32,0,0,0,5.16-.53c3-.71,3.83-3.54,4.33-8,.66-6.38.66-18.25.66-32.08Z" transform="translate(-35.73 -166)"/><path class="cls-2" d="M1571.07,886.27c-2.33-1.06-2.83-1.77-2.83-5.14,0-8.15.66-17.54.83-20,0-2.3.67-3.9,1.83-3.9,1.33,0,1.5,1.42,1.5,2.48a29.65,29.65,0,0,0,1.33,7.8c3.16,11.16,14.15,14.89,23.31,14.89,12.65,0,20.31-8.51,20.31-19.14,0-6.56-1.5-13.11-14.48-21.27l-8.49-5.32c-17.32-10.81-23-20.91-23-34.2,0-18.43,16.65-30.31,37-30.31a81.86,81.86,0,0,1,20.81,2.48c1.33.35,2,.89,2,1.95,0,2-.5,6.2-.5,18.08,0,3.19-.66,4.79-1.83,4.79q-1.5,0-1.5-2.66a17.66,17.66,0,0,0-3.83-9.92c-2.16-2.84-6.82-7.09-16.31-7.09-10.49,0-20,5.85-20,16.13,0,6.73,2.33,12.05,15.48,19.85l6,3.54c19.31,11.34,25.3,22.86,25.3,36.51,0,11.16-4,20.2-14.65,28.18-7,5.32-16.65,6.2-24.47,6.2C1586.4,890.17,1577.4,889.28,1571.07,886.27Z" transform="translate(-35.73 -166)"/><path class="cls-2" d="M1715.59,831.15c0-25.7,17-59,61.43-59,37,0,59.94,21.8,59.94,56.36s-23.64,61.67-61.44,61.67C1732.9,890.17,1715.59,857.92,1715.59,831.15Zm99.56,2.84c0-33.32-18.81-53.88-42.46-53.88-16.31,0-35.46,9.22-35.46,46.43,0,31,16.65,55.47,44.29,55.47C1791.84,882,1815.15,876.88,1815.15,834Z" transform="translate(-35.73 -166)"/><path class="cls-2" d="M1890.24,845c0,14.53.16,25.17.83,31.55.5,4.43,1.5,7.27,5.83,8a48.62,48.62,0,0,0,7.16.53c1.83,0,2.5.89,2.5,1.6,0,1.06-1,1.59-3.16,1.59-9.33,0-19.65-.53-23.48-.53s-13.15.53-18.64.53c-2,0-3-.35-3-1.59,0-.71.5-1.6,2.17-1.6a20.32,20.32,0,0,0,5.16-.53c3-.71,3.83-3.54,4.33-8,.66-6.38.66-17.54.66-32.08V817.86c0-22.86,0-27.11-.16-31.9-.33-5.14-1.66-6.91-6.32-8.15a25.44,25.44,0,0,0-5.83-.53c-1.33,0-2.5-.53-2.5-1.6s1.17-1.42,3.49-1.42c7.49,0,16.82.35,21,.35,5.66,0,38.12.18,41.62,0a38.14,38.14,0,0,0,6-.71c.83-.18,1.5-.89,2.33-.89.5,0,1,.71,1,1.42,0,1.06-.66,2.84-1.16,6.74-.16,1.6-.5,10.46-.67,12.23-.16,1.24-.5,3-1.5,3s-1.83-.71-1.83-2.48a12.67,12.67,0,0,0-.83-5.67c-1-2.13-3.83-4.43-9.33-4.61l-24.31-.53c-.83,0-1.33.35-1.33,2.13v36.51c0,.89.16,1.42,1,1.42l20.48-.18c2.5,0,4.5,0,6.66-.18,2.67-.18,4.83-.71,6.16-2.66.83-.89,1.17-1.59,2-1.59.5,0,.83.53.83,1.42s-.66,5-1.16,9.75c-.33,3-.5,9.92-.5,11,0,1.24-.17,3.37-1.67,3.37-.83,0-1.33-1.06-1.33-2.13a14.54,14.54,0,0,0-1-4.61,7.56,7.56,0,0,0-7-5.49c-3.66-.35-21-.53-23.48-.53-.66,0-1,.18-1,1.24Z" transform="translate(-35.73 -166)"/><path class="cls-3" d="M1096.26,198.46a3.17,3.17,0,0,0,.36.22c6.4,3.28,7.8,9.11,7.73,16-.23,20.49-1.28,40.93-2.87,61.33-.48,6.17-.91,12.46-3.16,18.32-.87,2.25-2.06,4.4-4.76,3.91-2.5-.46-2.75-2.78-2.85-5-.13-3.12-.23-6.24-.35-9.35-.42-10.37-1.85-20.52-5.62-30.19-12.87-33-52.36-54.94-87.06-48.56-31.28,5.76-53.25,23.21-61.59,56.66-5.8,23.3-3.47,46.37,5.57,68.54C952,355.73,968,377,984.57,397.84c47.26,59.46,101.49,111.37,156,162.94,3.47,3.29,5,2.66,7.15-1.07a198.71,198.71,0,0,0,27.75-98.22c.58-28.2-12.58-42.74-38.87-44-3.6-.17-9.27.83-9.18-4.54.08-5.1,5.67-4.41,9.32-4.43a582.75,582.75,0,0,1,73.46,4.56c7.33.88,10.3,4.51,10.45,12.28a136.83,136.83,0,0,1-4.14,34.67c-9.89,41.18-28.55,77.68-52.77,111.15-2.38,3.28-3.28,5.16.57,8.11,7.86,6,15.15,12.91,22.93,19.08,26.42,21,53.51,40.77,84.32,54a52.43,52.43,0,0,0,5.68,2.06h261.54v-456Zm327.21,416.42c-25.22,17.18-53.46,22-80.19,22-29.25,0-51.94-3.76-73.63-14-8.07-3.76-9.58-6.44-9.58-18.25,0-29.53,2-61.73,2.52-70.32.5-8.05,2-14,6.05-14,4.54,0,5,4.83,5,9.13,0,7,2,18.25,4.54,27.38,11.1,39.73,40.85,54.22,72.12,54.22,45.39,0,67.58-32.75,67.58-61.2,0-26.31-7.57-51-49.42-85.89l-23.2-19.33c-55.47-46.17-74.64-83.75-74.64-127.23,0-59.05,46.4-101.46,116.5-101.46,32.78,0,54,5.37,67.07,9.13,4.54,1.07,7.06,2.68,7.06,6.44,0,7-2,22.55-2,64.42,0,11.81-1.51,16.11-5.55,16.11-3.53,0-5-3.22-5-9.66,0-4.83-2.52-21.47-13.11-35.43-7.57-10.2-22.19-26.3-55-26.3-37.32,0-60,23.08-60,55.29,0,24.69,11.6,43.48,53.46,77.3l14.12,11.27c61,48.85,82.71,85.89,82.71,136.89C1470.88,552.6,1459.78,589.65,1423.47,614.88Z" transform="translate(-35.73 -166)"/><path class="cls-3" d="M431.43,198.46v456H886.56c-.19-.16-.38-.33-.58-.48a145.56,145.56,0,0,1-36.72-40.45c-23.8-43.46-27.73-104-.13-153.52,16.47-29.54,40-51.55,67.3-69.18,3.9-2.52,5.2-4.05,1.9-8.47-5.47-7.32-9.7-15.58-13.63-24-10.19-21.77-15.35-44.78-12.26-69,3.74-29.38,18.56-52.42,39-71.79,8.05-7.63,17.24-13.41,26.48-19.12ZM841.94,437.72c-4,0-7.57.54-13.62,1.61-13.62,2.68-18.66,11.81-19.16,30.6-.5,16.11-.5,37.58-.5,64.42V593.4c0,14.49-.5,15.57-6.56,19.33-32.78,18.25-82.2,24.16-121.54,24.16-123.56,0-233-62.27-233-210.44,0-85.89,41.86-146,87.75-175.54C583.73,219.77,628.62,216,671,216c34.8,0,79.18,6.44,89.26,8.59,10.59,2.15,28.24,5.37,39.84,5.91,6.05.54,7.06,2.68,7.06,6.44,0,5.91-3.53,20.94-3.53,88,0,8.59-1.51,11.27-5.55,11.27-3.53,0-4.54-2.68-5-7-1.51-12.35-4-29.53-17.15-44.56-15.13-17.18-55.47-41.87-112.46-41.87-27.74,0-64.55,2.15-99.85,33.28-28.24,25.23-46.4,65.49-46.4,131.52,0,115.42,69.09,201.85,175.5,201.85,13.11,0,30.76,0,42.87-5.9,7.56-3.76,9.58-10.74,9.58-19.86V533.28c0-26.84,0-47.24-.5-63.35-.5-18.25-5-26.84-21.68-30.6-4-1.07-12.61-1.61-19.67-1.61-4.54,0-7.57-1.07-7.57-4.29,0-4.29,3.53-5.37,10.59-5.37,26.22,0,58,1.61,73.13,1.61,15.63,0,42.36-1.61,59-1.61,6.56,0,10.09,1.07,10.09,5.37C848.5,436.65,845.47,437.72,841.94,437.72Z" transform="translate(-35.73 -166)"/><path class="cls-3" d="M1109.73,597.63c-21.16-18.38-41.23-38.08-61.38-57.68-41.89-40.73-80.66-84.53-115.2-132.49-2.51-3.49-4.09-2.44-6.61-.57-33.93,25.24-50.58,60-50.14,103.92,0,5.07-.27,10.16.08,15.2a113,113,0,0,0,2,14.44c9.73,48.61,35.21,83.16,79.82,100.22,23,8.81,46.77,8.25,70.51,4.19,30.74-5.26,58-18.57,81.08-41.08C1112.51,601.24,1112.42,600,1109.73,597.63Z" transform="translate(-35.73 -166)"/><path class="cls-3" d="M1131.39,614.67c-2-1.65-3.28-1.52-5.07.35-4.57,4.77-9.24,9.43-14.05,13.91a204.34,204.34,0,0,1-34.49,25.51H1184.2c-9.53-6.07-17.93-12-26.06-18.39Q1144.65,625.52,1131.39,614.67Z" transform="translate(-35.73 -166)"/><path class="cls-2" d="M1580.32,686.9H389.9V166H1580.32ZM408.93,666.64H1561.29V186.26H408.93Z" transform="translate(-35.73 -166)"/><path class="cls-4" d="M1448.69,302.44c0,6.44,1.51,9.66,5,9.66,4,0,5.55-4.3,5.55-16.11,0-6.56,0-12.48.13-17.82q-6.44,5.5-13,10.94A54.94,54.94,0,0,1,1448.69,302.44Z" transform="translate(-35.73 -166)"/><path class="cls-5" d="M692.67,609.51c13.11,0,30.76,0,42.87-5.9,7.56-3.76,9.58-10.74,9.58-19.86V558.38c-63.55,3.31-124.31.73-180.86-7.43C594.86,587.53,639,609.51,692.67,609.51Z" transform="translate(-35.73 -166)"/><path class="cls-5" d="M808.66,593.4c0,14.49-.5,15.57-6.56,19.33-32.78,18.25-82.2,24.16-121.54,24.16-88.87,0-170.44-32.22-209.23-105.44q-20.5-5.78-39.91-12.7V654.44H886.56c-.19-.16-.38-.33-.58-.48a145.56,145.56,0,0,1-36.72-40.45,161.44,161.44,0,0,1-18.71-63q-11,1.43-21.89,2.64Z" transform="translate(-35.73 -166)"/><path class="cls-5" d="M958.31,640.67c23,8.81,46.77,8.25,70.51,4.19,30.74-5.26,58-18.57,81.08-41.08,2.6-2.53,2.52-3.8-.18-6.14-21.16-18.38-41.23-38.08-61.38-57.68q-14.91-14.49-29.26-29.52a1255.49,1255.49,0,0,1-140,32.73C889.2,590.35,914.54,623.93,958.31,640.67Z" transform="translate(-35.73 -166)"/><path class="cls-5" d="M1459.41,278.18c-.08,5.34-.13,11.26-.13,17.82,0,11.81-1.51,16.11-5.55,16.11-3.53,0-5-3.22-5-9.66a54.94,54.94,0,0,0-2.31-13.33,1058.43,1058.43,0,0,1-91.8,67.52c5.62,5.16,12.07,10.67,19.48,16.66l14.12,11.27c61,48.85,82.71,85.89,82.71,136.89,0,31.14-11.09,68.18-47.41,93.41-25.22,17.18-53.46,22-80.19,22-29.25,0-51.94-3.76-73.63-14-8.07-3.76-9.58-6.44-9.58-18.25,0-29.53,2-61.73,2.52-70.32.5-8.05,2-14,6.05-14,4.54,0,5,4.83,5,9.13,0,7,2,18.25,4.54,27.38,11.1,39.73,40.85,54.22,72.12,54.22,45.39,0,67.58-32.75,67.58-61.2,0-26.31-7.57-51-49.42-85.89l-23.2-19.33c-22-18.28-38.22-35.21-49.87-51.7q-36.17,20.78-74.88,39.62a144.22,144.22,0,0,1-4,27.4c-9.89,41.18-28.55,77.68-52.77,111.15-2.38,3.28-3.28,5.16.57,8.11,7.86,6,15.15,12.91,22.93,19.08,26.42,21,53.51,40.77,84.32,54a52.43,52.43,0,0,0,5.68,2.06h261.54V201.6A881.68,881.68,0,0,1,1459.41,278.18Z" transform="translate(-35.73 -166)"/><path class="cls-5" d="M1140.59,560.79c3.47,3.29,5,2.66,7.15-1.07a198.71,198.71,0,0,0,27.75-98.22,75.69,75.69,0,0,0-.27-7.94q-50.22,22-103.9,40.31C1094,516.61,1117.27,538.73,1140.59,560.79Z" transform="translate(-35.73 -166)"/><path class="cls-5" d="M1131.39,614.67c-2-1.65-3.28-1.52-5.07.35-4.57,4.77-9.24,9.43-14.05,13.91a204.35,204.35,0,0,1-34.49,25.51H1184.2c-9.53-6.07-17.93-12-26.06-18.39Q1144.65,625.52,1131.39,614.67Z" transform="translate(-35.73 -166)"/><path class="cls-1" d="M1380.61,240.71c-37.32,0-60,23.08-60,55.29,0,20.32,7.87,36.65,34,60.64a1058.43,1058.43,0,0,0,91.8-67.52,67.36,67.36,0,0,0-10.8-22.1C1428,256.81,1413.39,240.71,1380.61,240.71Z" transform="translate(-35.73 -166)"/><path class="cls-1" d="M1270.67,317.47c0-59.05,46.4-101.46,116.5-101.46,32.78,0,54,5.37,67.07,9.13,4.54,1.07,7.06,2.68,7.06,6.44,0,5.89-1.43,17.88-1.88,46.6a881.68,881.68,0,0,0,79.38-76.58v-3.14H1096.26a3.16,3.16,0,0,0,.36.22c6.4,3.28,7.8,9.11,7.73,16-.23,20.49-1.28,40.93-2.87,61.33-.48,6.17-.91,12.46-3.16,18.32-.87,2.25-2.06,4.4-4.76,3.91-2.5-.46-2.75-2.78-2.85-5-.13-3.12-.23-6.24-.35-9.35-.42-10.37-1.85-20.52-5.62-30.19-12.87-33-52.36-54.94-87.06-48.56-31.28,5.76-53.25,23.21-61.59,56.66-5.8,23.3-3.47,46.37,5.57,68.54C952,355.73,968,377,984.57,397.84c27.05,34,56.39,65.59,86.75,96q53.61-18.23,103.9-40.31c-1.93-23-14.92-34.92-38.6-36.07-3.6-.17-9.27.83-9.18-4.54.08-5.1,5.67-4.41,9.32-4.43a582.75,582.75,0,0,1,73.46,4.56c7.33.88,10.3,4.51,10.45,12.28,0,2.43,0,4.86-.11,7.27q38.68-18.8,74.88-39.62C1277.68,367.85,1270.67,343.74,1270.67,317.47Z" transform="translate(-35.73 -166)"/><path class="cls-1" d="M849.13,460c16.47-29.54,40-51.55,67.3-69.18,3.9-2.52,5.2-4.05,1.9-8.47-5.47-7.32-9.7-15.58-13.63-24-10.19-21.77-15.35-44.78-12.26-69,3.74-29.38,18.56-52.42,39-71.79,8.05-7.63,17.24-13.41,26.48-19.12H431.43V518.75q19.39,6.92,39.91,12.7c-15.14-28.58-23.77-63.4-23.77-105,0-85.89,41.86-146,87.75-175.54C583.73,219.77,628.62,216,671,216c34.8,0,79.18,6.44,89.26,8.59,10.59,2.15,28.24,5.37,39.84,5.91,6.05.54,7.06,2.68,7.06,6.44,0,5.91-3.53,20.94-3.53,88,0,8.59-1.51,11.27-5.55,11.27-3.53,0-4.54-2.68-5-7-1.51-12.35-4-29.53-17.15-44.56-15.13-17.18-55.47-41.87-112.46-41.87-27.74,0-64.55,2.15-99.85,33.28-28.24,25.23-46.4,65.49-46.4,131.52,0,57.22,17,107.31,47.09,143.28,56.55,8.17,117.32,10.75,180.86,7.43v-25.1c0-26.84,0-47.24-.5-63.35-.5-18.25-5-26.84-21.68-30.6-4-1.07-12.61-1.61-19.67-1.61-4.54,0-7.57-1.07-7.57-4.29,0-4.29,3.53-5.37,10.59-5.37,26.22,0,58,1.61,73.13,1.61,15.63,0,42.36-1.61,59-1.61,6.56,0,10.09,1.07,10.09,5.37,0,3.22-3,4.29-6.56,4.29-4,0-7.57.54-13.62,1.61-13.62,2.68-18.66,11.81-19.16,30.6-.5,16.11-.5,37.58-.5,64.42v18.83q10.91-1.21,21.89-2.64C827.88,520.26,833.34,488.33,849.13,460Z" transform="translate(-35.73 -166)"/><path class="cls-1" d="M933.15,407.46c-2.51-3.49-4.09-2.44-6.61-.57-33.93,25.24-50.58,60-50.14,103.92,0,5.07-.27,10.16.08,15.2a113,113,0,0,0,2,14.44c.18.92.38,1.82.58,2.72a1255.49,1255.49,0,0,0,140-32.73A968.51,968.51,0,0,1,933.15,407.46Z" transform="translate(-35.73 -166)"/></svg>