<svg id="Layer_1" data-name="Layer 1" xmlns="http://www.w3.org/2000/svg" xmlns:xlink="http://www.w3.org/1999/xlink" viewBox="0 0 1896.19 1039.87"><defs><style>.cls-1{fill:#133155;}.cls-2{fill:#666766;}.cls-3{fill:#333;}.cls-4{fill:none;}.cls-5{fill:url(#linear-gradient);}.cls-6{fill:url(#linear-gradient-2);}.cls-7{fill:url(#linear-gradient-3);}.cls-8{fill:url(#linear-gradient-4);}.cls-9{fill:url(#linear-gradient-5);}.cls-10{fill:url(#linear-gradient-6);}.cls-11{fill:url(#linear-gradient-7);}</style><linearGradient id="linear-gradient" x1="417.33" y1="687.36" x2="1083.72" y2="687.36" gradientUnits="userSpaceOnUse"><stop offset="0" stop-color="#333"/><stop offset="1" stop-color="#333"/></linearGradient><linearGradient id="linear-gradient-2" x1="417.33" y1="693.8" x2="1083.72" y2="693.8" xlink:href="#linear-gradient"/><linearGradient id="linear-gradient-3" x1="417.33" y1="686.18" x2="1083.72" y2="686.18" xlink:href="#linear-gradient"/><linearGradient id="linear-gradient-4" x1="1376.74" y1="609.07" x2="1376.74" y2="378.04" gradientUnits="userSpaceOnUse"><stop offset="0" stop-color="#53728e"/><stop offset="1" stop-color="#305774"/></linearGradient><linearGradient id="linear-gradient-5" x1="1229.42" y1="609.07" x2="1229.42" y2="378.04" xlink:href="#linear-gradient-4"/><linearGradient id="linear-gradient-6" x1="892.71" y1="666.48" x2="515.5" y2="289.27" gradientUnits="userSpaceOnUse"><stop offset="0" stop-color="#6d6d6d"/><stop offset="1" stop-color="#464646"/></linearGradient><linearGradient id="linear-gradient-7" x1="1039.23" y1="638.01" x2="828.16" y2="550.79" xlink:href="#linear-gradient-6"/></defs><title>two color vector file (enlarged)</title><path class="cls-1" d="M160.62,1158.46c0,5.27-.18,5.66-2.35,7-11.76,6.64-29.48,8.78-43.59,8.78-44.31,0-83.56-22.64-83.56-76.5,0-31.23,15-53.08,31.47-63.82,17.36-11.32,33.46-12.69,48.65-12.69a202.15,202.15,0,0,1,32,3.12,110,110,0,0,0,14.29,2.15c2.17.2,2.53,1,2.53,2.34,0,2.15-1.27,7.61-1.27,32,0,3.12-.54,4.1-2,4.1-1.27,0-1.63-1-1.81-2.54-.54-4.49-1.45-10.73-6.15-16.2C143.44,1040,129,1031,108.53,1031c-9.95,0-23.15.78-35.81,12.1-10.13,9.17-16.64,23.81-16.64,47.81,0,42,24.78,73.38,62.94,73.38,4.7,0,11,0,15.37-2.15,2.71-1.37,3.44-3.9,3.44-7.22V1136.6c0-9.76,0-17.17-.18-23-.18-6.64-1.81-9.76-7.78-11.12a34.6,34.6,0,0,0-7.05-.59c-1.63,0-2.71-.39-2.71-1.56,0-1.56,1.27-2,3.8-2,9.41,0,20.8.59,26.22.59,5.61,0,15.19-.59,21.16-.59,2.35,0,3.62.39,3.62,2,0,1.17-1.08,1.56-2.35,1.56a26.5,26.5,0,0,0-4.88.59c-4.88,1-6.69,4.29-6.87,11.12-.18,5.85-.18,13.66-.18,23.42Z" transform="translate(-31.12 -268.35)"/><path class="cls-1" d="M210.72,1094.06c0-25.18,0-29.86-.18-35.13-.36-5.66-1.81-7.42-6.87-9a27.24,27.24,0,0,0-6.33-.59c-1.63,0-2.71-.59-2.71-1.76s1.27-1.56,3.62-1.56c8.32,0,18.45.39,21.7.39,5.43,0,19.89-.39,24.78-.39,10.13,0,21.7,1,30.2,7a29.6,29.6,0,0,1,11.21,22.83c0,12.29-6.51,23.22-22.06,36.69,14.11,18.74,25.32,33.76,34.91,44.11,8.86,9.56,14.47,10.34,17,10.93a13.82,13.82,0,0,0,3.8.39,1.9,1.9,0,0,1,2,1.76c0,1.37-1.09,1.76-3.07,1.76H303.5c-8.86,0-13.2-1-17.36-3.32-6.87-3.71-12.84-11.51-21.7-24.39-6.33-9-13-20.1-15-22.64a3.52,3.52,0,0,0-2.89-1.17l-14.29-.39A1.19,1.19,0,0,0,231,1121v2.34c0,15.42.18,28.3.9,35.32.54,4.88,1.27,8,6.15,8.78a56.1,56.1,0,0,0,7.78.59,1.9,1.9,0,0,1,2,1.76c0,1.17-1.27,1.76-3.26,1.76-9.22,0-22.43-.59-24.78-.59-3.07,0-13.2.59-19.53.59-2,0-3.07-.59-3.07-1.76,0-.78.54-1.76,2.53-1.76a21.81,21.81,0,0,0,5.61-.59c3.26-.78,4.16-3.9,4.7-8.78.72-7,.72-20.1.72-35.32ZM231,1106.94c0,1.76.36,2.34,1.45,2.93a40.63,40.63,0,0,0,12.12,1.56c6.33,0,8.5-.59,11.21-2.73,4.88-3.71,10.31-10.93,10.31-24.59,0-23.42-14.83-29.47-24.23-29.47a53.47,53.47,0,0,0-9.4.59c-1.09.39-1.45,1-1.45,2.34Z" transform="translate(-31.12 -268.35)"/><path class="cls-1" d="M341.66,1094.06c0-25.18,0-29.86-.18-35.13-.36-5.66-2-7.61-5.43-8.78a18.91,18.91,0,0,0-5.79-.78c-1.63,0-2.53-.39-2.53-2,0-1,1.27-1.37,3.8-1.37,6,0,16.82.39,21.34.39,4,0,14.29-.39,20.44-.39,2,0,3.26.39,3.26,1.37,0,1.56-.9,2-2.53,2a20.55,20.55,0,0,0-4.7.59c-4.34.78-5.61,3.12-6,9-.36,5.27-.36,10-.36,35.13v29.27c0,16,0,29.27.72,36.3.54,4.49,1.63,7,6.33,7.81a55.34,55.34,0,0,0,8.14.59c1.81,0,2.53,1,2.53,1.76,0,1.17-1.27,1.76-3.07,1.76-10.49,0-21.34-.59-25.68-.59-3.62,0-14.47.59-20.8.59-2,0-3.07-.59-3.07-1.76,0-.78.54-1.76,2.53-1.76a21.81,21.81,0,0,0,5.61-.59c3.26-.78,4.16-3.12,4.7-8,.72-6.83.72-20.1.72-36.1Z" transform="translate(-31.12 -268.35)"/><path class="cls-1" d="M432.09,1148.9c.36,12.88,2.35,16.78,5.43,18a25.17,25.17,0,0,0,8.32,1.17c1.81,0,2.71.78,2.71,1.76,0,1.37-1.45,1.76-3.62,1.76-10.31,0-17.72-.59-20.62-.59-1.45,0-9,.59-17.18.59-2.17,0-3.62-.19-3.62-1.76,0-1,1.09-1.76,2.53-1.76a30.45,30.45,0,0,0,7.23-.78c4.16-1.17,4.7-5.66,4.88-20.1l1.45-98.36c0-3.32,1.09-5.66,2.71-5.66,2,0,4.16,2.54,6.87,5.46,2,2.15,25.86,28.49,49,52.89,10.85,11.51,32,34.93,34.36,37.28h.72L511.66,1065c-.18-10.15-1.63-13.08-5.43-14.64-2.35-1-6.15-1-8.32-1-2,0-2.53-.78-2.53-1.76,0-1.37,1.63-1.56,4-1.56,8.32,0,16.82.39,20.26.39,1.81,0,7.78-.39,15.55-.39,2.17,0,3.62.19,3.62,1.56,0,1-.9,1.76-2.71,1.76a15,15,0,0,0-4.88.59c-4.34,1.37-5.61,4.29-5.79,13.66l-1.81,104.61c0,3.71-1.27,5.27-2.53,5.27-2.71,0-4.88-1.76-6.51-3.51-9.95-10-29.84-30.44-46.48-47.81-17.36-18-34.18-38.06-37.26-41h-.54Z" transform="translate(-31.12 -268.35)"/><path class="cls-1" d="M581.11,1094.06c0-25.18,0-29.86-.18-35.13-.36-5.66-1.81-7.42-6.87-9a27.24,27.24,0,0,0-6.33-.59c-1.63,0-2.71-.59-2.71-1.76s1.27-1.56,3.62-1.56c8.32,0,18.45.39,21.52.39,8,0,18.45-.39,23.87-.39,28.76,0,33.82,16,33.82,24.79,0,12.88-8.86,22.83-17.9,29.08,13,4.49,29.3,16.39,29.3,35.91,0,17.76-13,36.1-42.32,36.1-1.81,0-7.23-.19-12.66-.59-5.43-.2-11-.39-13.56-.39-1.81,0-5.24.19-9,.19-3.8.2-7.78.39-11,.39-2,0-3.07-.59-3.07-1.76,0-.78.54-1.76,2.53-1.76a21.81,21.81,0,0,0,5.61-.59c3.26-.78,4.16-3.9,4.7-8.78.72-7,.72-20.1.72-35.32Zm20.62,2.73c0,1.37.54,1.56,1.09,1.76a31.51,31.51,0,0,0,7.41.59c5.25,0,9.77-.59,12.48-2.93,4.16-3.51,7.23-9.56,7.23-17.56,0-11.12-6.15-25-19.89-25a37.52,37.52,0,0,0-6.87.39c-1.09.2-1.45,1-1.45,2.73Zm0,48.79c0,10.93.54,14.25,5.61,16.39a27.39,27.39,0,0,0,11.39,2c8.5,0,19.53-5.07,19.53-23.42a37.28,37.28,0,0,0-15-29.47c-3.26-2.54-7.6-4.29-13.75-4.29h-6.87c-.54,0-.9.19-.9,1.17Z" transform="translate(-31.12 -268.35)"/><path class="cls-1" d="M696.5,1094.06c0-25.18,0-29.86-.18-35.13-.36-5.66-1.81-7.42-6.87-9a27.24,27.24,0,0,0-6.33-.59c-1.63,0-2.71-.59-2.71-1.76s1.27-1.56,3.62-1.56c8.32,0,18.45.39,23,.39,5.06,0,40.33.19,43.41,0a63.15,63.15,0,0,0,6.69-1,17.42,17.42,0,0,1,2.53-.78c.9,0,1.08.78,1.08,1.56,0,1.17-.9,3.12-1.27,10.73-.18,1.76-.54,9-.9,10.93-.18.78-.54,2.73-1.81,2.73-1.08,0-1.27-.78-1.27-2.15a16.69,16.69,0,0,0-1.08-6.05c-1.27-2.93-2.53-5.27-10.49-6-2.71-.39-21.7-.78-25-.78-.72,0-1.09.59-1.09,1.56v41c0,1,.18,1.76,1.09,1.76,3.62,0,24.23,0,27.85-.39,3.8-.39,6-1,7.6-2.54,1.27-1.17,1.81-2.15,2.53-2.15s1.27.78,1.27,1.76-.36,3.71-1.27,12.1c-.36,3.32-.72,10-.72,11.12,0,1.37-.18,3.71-1.63,3.71-1.08,0-1.45-.59-1.45-1.37-.18-1.76-.18-3.9-.54-6.05-.9-3.32-2.89-5.85-8.86-6.44-2.89-.39-21-.78-25-.78-.72,0-.9.78-.9,1.76v13.27c0,5.66-.18,19.71,0,24.59.36,11.32,5.25,13.86,21.52,13.86,4.16,0,10.85-.19,15-2.15,4-2,5.79-5.46,6.87-12.29.36-1.76.72-2.54,1.81-2.54,1.27,0,1.45,2.15,1.45,3.9,0,3.71-1.27,15-2.17,18.35-1.08,4.29-2.53,4.29-8.5,4.29-11.94,0-21.52-.19-29.3-.59-7.78-.2-13.75-.39-18.45-.39-1.81,0-5.25.19-9,.19-3.8.2-7.78.39-11,.39-2,0-3.07-.59-3.07-1.76,0-.78.54-1.76,2.53-1.76a21.82,21.82,0,0,0,5.61-.59c3.26-.78,4.16-3.9,4.7-8.78.72-7,.72-20.1.72-35.32Z" transform="translate(-31.12 -268.35)"/><path class="cls-1" d="M803.93,1094.06c0-25.18,0-29.86-.18-35.13-.36-5.66-1.81-7.42-6.87-9a27.24,27.24,0,0,0-6.33-.59c-1.63,0-2.71-.59-2.71-1.76s1.27-1.56,3.62-1.56c8.32,0,18.45.39,21.7.39,5.43,0,19.89-.39,24.78-.39,10.13,0,21.7,1,30.2,7a29.6,29.6,0,0,1,11.21,22.83c0,12.29-6.51,23.22-22.07,36.69,14.11,18.74,25.32,33.76,34.91,44.11,8.86,9.56,14.47,10.34,17,10.93a13.81,13.81,0,0,0,3.8.39,1.9,1.9,0,0,1,2,1.76c0,1.37-1.09,1.76-3.08,1.76H896.71c-8.86,0-13.2-1-17.36-3.32-6.87-3.71-12.84-11.51-21.7-24.39-6.33-9-13-20.1-15-22.64a3.52,3.52,0,0,0-2.89-1.17l-14.29-.39a1.19,1.19,0,0,0-1.27,1.37v2.34c0,15.42.18,28.3.9,35.32.54,4.88,1.27,8,6.15,8.78a56.08,56.08,0,0,0,7.78.59,1.9,1.9,0,0,1,2,1.76c0,1.17-1.27,1.76-3.26,1.76-9.22,0-22.43-.59-24.78-.59-3.07,0-13.2.59-19.53.59-2,0-3.07-.59-3.07-1.76,0-.78.54-1.76,2.53-1.76a21.81,21.81,0,0,0,5.61-.59c3.26-.78,4.16-3.9,4.7-8.78.72-7,.72-20.1.72-35.32Zm20.26,12.88c0,1.76.36,2.34,1.45,2.93a40.63,40.63,0,0,0,12.12,1.56c6.33,0,8.5-.59,11.21-2.73,4.88-3.71,10.31-10.93,10.31-24.59,0-23.42-14.83-29.47-24.23-29.47a53.47,53.47,0,0,0-9.4.59c-1.09.39-1.45,1-1.45,2.34Z" transform="translate(-31.12 -268.35)"/><path class="cls-1" d="M1031.09,1160.41c0,4.49,0,4.68-2,5.85-10.67,5.66-26.4,7.42-38.88,7.42-39.06,0-73.61-19.13-73.61-65,0-26.54,13.2-45.08,27.85-54.25,15.19-9.56,29.48-10.73,42.86-10.73a168.51,168.51,0,0,1,28.21,2.73,118.05,118.05,0,0,0,12.66,1.76c1.81.2,2.17.78,2.17,2,0,2-1.08,6.44-1.08,27.32,0,2.54-.9,3.71-2.17,3.71-1.08,0-1.45-.78-1.63-2.15a23,23,0,0,0-5.43-13.66c-4.7-5.27-16.64-12.69-34.54-12.69-8.68,0-19.71.19-30.75,9.76-8.86,7.81-14.65,20.1-14.65,40.4,0,35.71,21.34,61.67,55.34,61.67,4.16,0,7.42,0,11.21-1.76,2.35-1.17,3.07-2.93,3.07-5.85v-15.22c0-8.2,0-14.44-.18-19.52-.18-5.66-1.81-7.42-6.87-9a26.61,26.61,0,0,0-6.15-.59c-1.45,0-2.53-.78-2.53-1.76,0-1.37,1.27-1.56,3.44-1.56,8.32,0,19.71.39,24.42.39,5.06,0,13.38-.39,18.63-.39,2.17,0,3.26.19,3.26,1.56a1.89,1.89,0,0,1-2,1.76,20.18,20.18,0,0,0-4.34.59c-4.34.78-6,3.12-6.15,9-.18,5.07-.18,11.71-.18,19.91Z" transform="translate(-31.12 -268.35)"/><path class="cls-1" d="M1157.51,1084.89c-7.6-10.93-9-18.93-9.22-27.71-.18-15.42,12.48-35.91,43.95-35.91a57.87,57.87,0,0,1,21.88,4.1c3.08,1.17,3.08,2.73,3.08,5.07,0,6.44-1.45,22.05-2,25-.36,2.93-1.09,3.32-2.17,3.32s-1.27-.78-1.27-3.71a26.7,26.7,0,0,0-5.25-16.39c-3.62-4.68-9.95-8.78-20.07-8.78-7.6,0-19.35,5.66-19.35,22.25,0,18.35,15.55,34,30,51.33,6.15,7.61,28.39,29.27,31.83,32.59,3.62-5.46,8.68-18.15,8.68-30.05a12,12,0,0,0-3.44-9c-2.35-2.34-6.15-2.93-8.86-2.93-1.09,0-2.17-.39-2.17-1.56,0-1.56,1.45-2,2.89-2a187.94,187.94,0,0,1,21.7,1.37c3.44.39,6.15,1.56,6.15,3.9,0,15-7.41,33.18-17.72,46.25a186.7,186.7,0,0,0,25.14,19.13c5.79,3.71,15.73,6.83,19.35,6.83,1.63,0,2.53.19,2.53,1.76,0,1.17-1.45,1.76-5.43,1.76h-13.93c-20.62,0-27.13-2.15-42.68-15-6,5.85-18.09,17.76-42.86,17.76-38.7,0-50.28-26.15-50.28-43.13C1128,1108.31,1146.66,1090.55,1157.51,1084.89Zm56.61,65.38c-10.49-9.76-27.85-28.1-32.55-33.57s-16.28-19.52-19.35-24.4c-6.15,4.88-12.48,14.05-12.48,29.66,0,24.4,15.91,40,34.72,40C1198.38,1162,1210.32,1154.17,1214.12,1150.26Z" transform="translate(-31.12 -268.35)"/><path class="cls-1" d="M1355.36,1169.2c-2.89-1.37-3.44-2.34-3.44-6.64,0-10.73.72-22.44.9-25.57.18-2.93.72-5.07,2.17-5.07,1.63,0,1.81,1.76,1.81,3.32a44.15,44.15,0,0,0,1.63,10c4,14.44,14.65,19.71,25.86,19.71,16.28,0,24.23-11.9,24.23-22.25,0-9.56-2.71-18.54-17.72-31.23l-8.32-7c-19.89-16.78-26.77-30.44-26.77-46.25,0-21.47,16.64-36.89,41.78-36.89a81.56,81.56,0,0,1,24.05,3.32c1.63.39,2.53,1,2.53,2.34,0,2.54-.72,8.2-.72,23.42,0,4.29-.54,5.85-2,5.85-1.27,0-1.81-1.17-1.81-3.51a24.8,24.8,0,0,0-4.7-12.88c-2.71-3.71-8-9.56-19.71-9.56-13.38,0-21.52,8.39-21.52,20.1,0,9,4.16,15.81,19.17,28.1l5.06,4.1c21.88,17.76,29.66,31.23,29.66,49.77,0,11.32-4,24.79-17,34-9,6.25-19.17,8-28.76,8C1371.28,1174.27,1363.14,1172.9,1355.36,1169.2Z" transform="translate(-31.12 -268.35)"/><path class="cls-1" d="M1470.21,1094.06c0-25.18,0-29.86-.18-35.13-.36-5.66-1.81-7.42-6.87-9a27.24,27.24,0,0,0-6.33-.59c-1.63,0-2.71-.59-2.71-1.76s1.27-1.56,3.62-1.56c8.32,0,18.45.39,23,.39,5.06,0,40.33.19,43.41,0a63.15,63.15,0,0,0,6.69-1,17.42,17.42,0,0,1,2.53-.78c.9,0,1.08.78,1.08,1.56,0,1.17-.9,3.12-1.27,10.73-.18,1.76-.54,9-.9,10.93-.18.78-.54,2.73-1.81,2.73-1.08,0-1.27-.78-1.27-2.15a16.69,16.69,0,0,0-1.08-6.05c-1.27-2.93-2.53-5.27-10.49-6-2.71-.39-21.7-.78-25-.78-.72,0-1.09.59-1.09,1.56v41c0,1,.18,1.76,1.09,1.76,3.62,0,24.23,0,27.85-.39,3.8-.39,6-1,7.6-2.54,1.27-1.17,1.81-2.15,2.53-2.15s1.27.78,1.27,1.76-.36,3.71-1.27,12.1c-.36,3.32-.72,10-.72,11.12,0,1.37-.18,3.71-1.63,3.71-1.08,0-1.45-.59-1.45-1.37-.18-1.76-.18-3.9-.54-6.05-.9-3.32-2.89-5.85-8.86-6.44-2.89-.39-21-.78-25-.78-.72,0-.9.78-.9,1.76v13.27c0,5.66-.18,19.71,0,24.59.36,11.32,5.25,13.86,21.52,13.86,4.16,0,10.85-.19,15-2.15,4-2,5.79-5.46,6.87-12.29.36-1.76.72-2.54,1.81-2.54,1.27,0,1.45,2.15,1.45,3.9,0,3.71-1.27,15-2.17,18.35-1.08,4.29-2.53,4.29-8.5,4.29-11.94,0-21.52-.19-29.3-.59-7.78-.2-13.75-.39-18.45-.39-1.81,0-5.25.19-9,.19-3.8.2-7.78.39-11,.39-2,0-3.07-.59-3.07-1.76,0-.78.54-1.76,2.53-1.76a21.82,21.82,0,0,0,5.61-.59c3.26-.78,4.16-3.9,4.7-8.78.72-7,.72-20.1.72-35.32Z" transform="translate(-31.12 -268.35)"/><path class="cls-1" d="M1678.38,1160.41c0,4.49,0,4.68-2,5.85-10.67,5.66-26.4,7.42-38.88,7.42-39.06,0-73.61-19.13-73.61-65,0-26.54,13.2-45.08,27.85-54.25,15.19-9.56,29.48-10.73,42.86-10.73a168.51,168.51,0,0,1,28.21,2.73,118.05,118.05,0,0,0,12.66,1.76c1.81.2,2.17.78,2.17,2,0,2-1.08,6.44-1.08,27.32,0,2.54-.9,3.71-2.17,3.71-1.08,0-1.45-.78-1.63-2.15a23,23,0,0,0-5.43-13.66c-4.7-5.27-16.64-12.69-34.54-12.69-8.68,0-19.71.19-30.75,9.76-8.86,7.81-14.65,20.1-14.65,40.4,0,35.71,21.34,61.67,55.34,61.67,4.16,0,7.42,0,11.21-1.76,2.35-1.17,3.07-2.93,3.07-5.85v-15.22c0-8.2,0-14.44-.18-19.52-.18-5.66-1.81-7.42-6.87-9a26.61,26.61,0,0,0-6.15-.59c-1.45,0-2.53-.78-2.53-1.76,0-1.37,1.27-1.56,3.43-1.56,8.32,0,19.71.39,24.42.39,5.06,0,13.38-.39,18.63-.39,2.17,0,3.26.19,3.26,1.56a1.89,1.89,0,0,1-2,1.76,20.18,20.18,0,0,0-4.34.59c-4.34.78-6,3.12-6.15,9-.18,5.07-.18,11.71-.18,19.91Z" transform="translate(-31.12 -268.35)"/><path class="cls-1" d="M1736.61,1129.58c-.9,0-1.09.19-1.45,1.17l-8.5,22.44a32.06,32.06,0,0,0-2.35,10.15c0,2.93,1.45,4.68,6.33,4.68H1733c2,0,2.35.78,2.35,1.76,0,1.37-.9,1.76-2.53,1.76-5.24,0-12.66-.59-17.72-.59-1.63,0-10.13.59-18.45.59-2,0-2.89-.39-2.89-1.76a1.63,1.63,0,0,1,1.81-1.76c1.45,0,3.26-.2,4.7-.2,7.23-1.17,9.95-6.24,13.2-14.64l41.6-103.63c1.81-4.68,3.07-6.64,4.7-6.64,2.35,0,3.07,1.56,4.7,5.27,3.8,9.17,30.38,76.31,40.51,101.48,6.15,15,10.67,17.17,13.56,17.76a35.7,35.7,0,0,0,6,.59q2.17,0,2.17,1.76c0,1.37-.9,1.76-6.87,1.76-5.61,0-17.18,0-30.56-.39-2.89-.19-4.7-.19-4.7-1.37,0-1,.36-1.56,2-1.76,1.09-.2,2.17-1.76,1.45-3.71l-12.3-33.57a1.51,1.51,0,0,0-1.63-1.17Zm34-9.17c.72,0,.9-.39.72-1l-15-41.57c-.18-.59-.36-1.56-.72-1.56-.54,0-.72,1-.9,1.56l-15.37,41.37c-.36.78,0,1.17.54,1.17Z" transform="translate(-31.12 -268.35)"/><path class="cls-1" d="M1872.25,1123.33c0,21.27,0,31.81,3.44,34.93,2.71,2.54,8.86,3.51,21.16,3.51,8.5,0,14.65-.19,18.63-4.68,2-2.15,3.62-6.83,4-10,.18-1.56.54-2.54,1.81-2.54,1.09,0,1.45,1.76,1.45,3.71s-1.08,14.25-2.35,19.13c-1.09,3.71-1.81,4.49-10.13,4.49-11.4,0-20.62-.19-28.58-.59-8-.2-14.65-.39-21.16-.39-1.81,0-5.25.19-9,.19-3.8.2-7.78.39-11,.39-2,0-3.07-.59-3.07-1.76,0-.78.54-1.76,2.53-1.76a21.82,21.82,0,0,0,5.61-.59c3.26-.78,4.16-3.9,4.7-8.78.72-7,.72-20.1.72-35.32v-29.27c0-25.18,0-29.86-.18-35.13-.36-5.66-1.81-7.42-6.87-9a19.73,19.73,0,0,0-5.24-.59q-2.71,0-2.71-1.76c0-1.17,1.08-1.56,3.44-1.56,7.41,0,17.54.39,21.88.39,3.8,0,16.82-.39,23-.39,2.35,0,3.44.39,3.44,1.56s-.9,1.76-2.89,1.76a32.8,32.8,0,0,0-6.15.59c-4.34.78-5.61,3.12-6,9-.36,5.27-.36,10-.36,35.13Z" transform="translate(-31.12 -268.35)"/><path class="cls-2" d="M774,1242.49c0-20.82,0-24.65-.25-29-.25-4.66-1.27-6.85-5.46-7.81a24.2,24.2,0,0,0-4.95-.41c-1.4,0-2.16-.27-2.16-1.23s.89-1.23,2.79-1.23c6.73,0,14.72.41,18.28.41,5.2,0,12.57-.41,18.4-.41,15.87,0,21.58,5.75,23.61,7.81a24.71,24.71,0,0,1,6.35,16.3c0,19.45-13.2,33.15-31.22,33.15a17.36,17.36,0,0,1-2.67-.14c-.63-.14-1.52-.27-1.52-1.23s.89-1.51,3.55-1.51c7.11,0,17-8.63,17-22.6,0-4.52-.38-13.7-7.49-20.55a18.06,18.06,0,0,0-12.69-5.34,16.75,16.75,0,0,0-5,.55c-.63.27-1,1.1-1,2.6v54.78c0,12.6,0,23.42.63,29.31.38,3.84,1.14,6.85,5,7.4a49.57,49.57,0,0,0,6.47.55c1.4,0,2,.41,2,1.1,0,1-1,1.37-2.41,1.37-8.38,0-16.37-.41-19.67-.41-2.92,0-10.92.41-16,.41-1.65,0-2.54-.41-2.54-1.37,0-.69.51-1.1,2-1.1a19.24,19.24,0,0,0,4.57-.55c2.54-.55,3.17-3.56,3.68-7.53.63-5.75.63-16.57.63-29.17Z" transform="translate(-31.12 -268.35)"/><path class="cls-2" d="M832.73,1297.55c0-3.43,2.28-8.36,7.74-8.36a7.58,7.58,0,0,1,7.74,7.94c0,4.79-3,8.77-7.87,8.77C835,1305.9,832.73,1301.38,832.73,1297.55Z" transform="translate(-31.12 -268.35)"/><path class="cls-2" d="M897.85,1266.59c0,17.53,0,27,2.67,29.45,2.16,2.05,5.46,3,15.36,3,6.73,0,11.68-.14,14.85-3.83A17.89,17.89,0,0,0,934,1287c.13-1.23.38-2.05,1.4-2.05s1,.68,1,2.33-.89,11.78-1.9,15.75c-.76,3-1.4,3.7-8,3.7-9.14,0-15.74-.27-21.45-.41s-10.28-.41-15.48-.41c-1.4,0-4.19,0-7.24.14s-6.22.27-8.76.27c-1.65,0-2.54-.41-2.54-1.37,0-.69.51-1.1,2-1.1a19.24,19.24,0,0,0,4.57-.55c2.54-.55,3.17-3.56,3.68-7.53.63-5.75.63-16.57.63-29.17v-24.1c0-20.82,0-24.65-.25-29-.25-4.66-1.27-6.85-5.46-7.81a17.48,17.48,0,0,0-4.19-.41c-1.4,0-2.16-.27-2.16-1.23s.89-1.23,2.79-1.23c6,0,14,.41,17.39.41,3,0,12.31-.41,17.26-.41,1.78,0,2.67.27,2.67,1.23s-.76,1.23-2.28,1.23a31.33,31.33,0,0,0-5,.41c-3.43.69-4.44,3-4.7,7.81-.25,4.38-.25,8.22-.25,29Z" transform="translate(-31.12 -268.35)"/><path class="cls-2" d="M950.9,1297.55c0-3.43,2.28-8.36,7.74-8.36a7.58,7.58,0,0,1,7.74,7.94c0,4.79-3,8.77-7.87,8.77C953.18,1305.9,950.9,1301.38,950.9,1297.55Z" transform="translate(-31.12 -268.35)"/><path class="cls-2" d="M1016,1266.59c0,17.53,0,27,2.67,29.45,2.16,2.05,5.46,3,15.36,3,6.73,0,11.68-.14,14.85-3.83a17.91,17.91,0,0,0,3.3-8.22c.13-1.23.38-2.05,1.4-2.05s1,.68,1,2.33-.89,11.78-1.9,15.75c-.76,3-1.4,3.7-8,3.7-9.14,0-15.74-.27-21.45-.41s-10.28-.41-15.49-.41c-1.4,0-4.19,0-7.24.14s-6.22.27-8.76.27c-1.65,0-2.54-.41-2.54-1.37,0-.69.51-1.1,2-1.1a19.23,19.23,0,0,0,4.57-.55c2.54-.55,3.17-3.56,3.68-7.53.64-5.75.64-16.57.64-29.17v-24.1c0-20.82,0-24.65-.25-29-.25-4.66-1.27-6.85-5.46-7.81a17.47,17.47,0,0,0-4.19-.41c-1.4,0-2.16-.27-2.16-1.23s.89-1.23,2.79-1.23c6,0,14,.41,17.39.41,3,0,12.31-.41,17.26-.41,1.78,0,2.66.27,2.66,1.23s-.76,1.23-2.28,1.23a31.31,31.31,0,0,0-4.95.41c-3.43.69-4.44,3-4.7,7.81-.25,4.38-.25,8.22-.25,29Z" transform="translate(-31.12 -268.35)"/><path class="cls-2" d="M1069.07,1297.55c0-3.43,2.28-8.36,7.74-8.36a7.58,7.58,0,0,1,7.74,7.94c0,4.79-3,8.77-7.87,8.77C1071.35,1305.9,1069.07,1301.38,1069.07,1297.55Z" transform="translate(-31.12 -268.35)"/><path class="cls-2" d="M1120.22,1293.3c-12.44-11.78-15.74-27.12-15.74-40.4,0-9.31,2.67-25.47,14.85-37.53,9.14-9,21.2-14.52,40.11-14.52a116.31,116.31,0,0,1,18.4,1.37c4.82.68,8.88,1.92,12.69,2.33,1.4.14,1.9.82,1.9,1.64,0,1.1-.38,2.74-.63,7.53-.25,4.52-.13,12.05-.38,14.79-.13,2.05-.38,3.15-1.52,3.15s-1.27-1.1-1.27-3a20.35,20.35,0,0,0-4.95-12.6c-4.19-4.79-14.09-8.49-25.77-8.49-11,0-18.28,3-23.86,8.49-9.27,9.18-11.68,22.19-11.68,35.47,0,32.6,23,48.76,40,48.76,11.3,0,18.15-1.37,23.23-7.67a23.56,23.56,0,0,0,4.31-9c.38-2.19.64-2.74,1.65-2.74s1.14,1,1.14,2.05a139.63,139.63,0,0,1-2.79,18.22c-.63,2.33-1.14,3-3.3,4-5.08,2.19-14.72,3.15-22.85,3.15C1146.36,1308.23,1131.77,1304.12,1120.22,1293.3Z" transform="translate(-31.12 -268.35)"/><polygon class="cls-2" points="1896.19 987.82 1185.35 1011.2 1185.35 956.96 1896.19 987.82 1896.19 987.82"/><polygon class="cls-2" points="0.19 987.82 712.9 1011.2 712.9 956.96 0.19 987.82 0.19 987.82"/><path class="cls-2" d="M82.94,873.43l-24.75.72c-9.63.36-13.62,1.26-16.11,5.2a22,22,0,0,0-2.82,6.27c-.33,1.44-.83,2.15-1.83,2.15-1.16,0-1.49-.9-1.49-2.87,0-2.87,3.16-19.18,3.49-20.62.5-2.33,1-3.41,2-3.41,1.33,0,3,1.79,7.14,2.15a161.11,161.11,0,0,0,16.61.9h65.79a73.85,73.85,0,0,0,11.46-.9,37.29,37.29,0,0,1,4.49-.9c1.16,0,1.33,1.08,1.33,3.77,0,3.76-.5,16.13-.5,20.79-.17,1.79-.5,2.87-1.5,2.87-1.33,0-1.66-.9-1.83-3.59l-.17-2c-.33-4.66-4.82-9.68-19.6-10l-20.93-.54v73.5c0,16.49,0,30.66.83,38.36.5,5,1.5,9,6.48,9.68a64.94,64.94,0,0,0,8.47.72c1.83,0,2.66.54,2.66,1.43,0,1.26-1.33,1.79-3.16,1.79-11,0-21.43-.54-26.08-.54-3.82,0-14.29.54-20.93.54-2.16,0-3.32-.54-3.32-1.79,0-.9.66-1.43,2.66-1.43a25.21,25.21,0,0,0,6-.72c3.32-.72,4.32-4.66,4.82-9.86.83-7.53.83-21.69.83-38.18Z" transform="translate(-31.12 -268.35)"/><path class="cls-2" d="M257.54,933.3c.33,0,.83-.18.83-1.08V929c0-23.13-.17-28.68-.33-33.52-.33-5.2-1.66-6.81-6.31-8.25a24.44,24.44,0,0,0-5.65-.54q-2.49,0-2.49-1.61c0-1.07,1-1.43,3.16-1.43,7.81,0,18.11.36,21.93.36,3.49,0,13.12-.36,18.77-.36,2.16,0,3.16.36,3.16,1.43s-1,1.61-2.66,1.61a22.75,22.75,0,0,0-4.32.54c-3.82.72-5,2.87-5.32,8.25-.33,4.84-.33,9.14-.33,32.27v26.89c0,14,0,26,.66,32.63.5,4.3,1.33,7.17,5.82,7.89a49.06,49.06,0,0,0,7.48.54c1.49,0,2.33.9,2.33,1.61,0,1.07-1.16,1.61-3,1.61-9.47,0-19.11-.54-23.09-.54-3.32,0-13.62.54-19.27.54-2,0-3.16-.54-3.16-1.61,0-.72.67-1.61,2.33-1.61a20.54,20.54,0,0,0,5.32-.54c3-.72,3.82-3.59,4.32-8.07.67-6.45.67-18.11.67-32.09V943.34a.92.92,0,0,0-.83-.9H202.39c-.5,0-1,.18-1,.9V955c0,14,.17,25.64.83,32.27.5,4.3,1.33,7.17,5.65,7.89a50.7,50.7,0,0,0,7.48.54c1.66,0,2.32.9,2.32,1.61,0,1.07-1.16,1.61-3,1.61-9.47,0-19.6-.54-23.76-.54-3.32,0-13,.54-18.77.54-1.83,0-2.82-.54-2.82-1.61,0-.72.5-1.61,2.33-1.61a20,20,0,0,0,5.15-.54c3-.72,3.82-3.59,4.32-8.07.67-6.45.67-18.46.67-32.45V927.75c0-23.13,0-27.43-.17-32.27-.33-5.2-1.66-6.81-6.31-8.25a25,25,0,0,0-5.82-.54c-1.49,0-2.49-.54-2.49-1.61s1.16-1.43,3.16-1.43c7.81,0,17.44.36,21.43.36,3.49,0,13.62-.36,19.44-.36,2,0,3,.36,3,1.43s-.83,1.61-2.66,1.61a19.89,19.89,0,0,0-4.15.54c-4,.72-5.15,2.87-5.48,8.25-.33,4.84-.33,10.4-.33,33.52v3.23c0,.9.5,1.08,1,1.08Z" transform="translate(-31.12 -268.35)"/><path class="cls-2" d="M332.14,927.75c0-23.13,0-27.43-.17-32.27-.33-5.2-1.66-6.81-6.31-8.25a25,25,0,0,0-5.82-.54c-1.49,0-2.49-.54-2.49-1.61s1.16-1.43,3.32-1.43c7.64,0,16.95.36,21.1.36,4.65,0,37,.18,39.87,0a58.18,58.18,0,0,0,6.15-.9,16,16,0,0,1,2.32-.72c.83,0,1,.72,1,1.43,0,1.08-.83,2.87-1.16,9.86-.17,1.61-.5,8.25-.83,10-.17.72-.5,2.51-1.66,2.51-1,0-1.16-.72-1.16-2a15.31,15.31,0,0,0-1-5.56c-1.16-2.69-2.33-4.84-9.64-5.56-2.49-.36-19.94-.72-22.93-.72-.67,0-1,.54-1,1.43v37.65c0,.9.17,1.61,1,1.61,3.32,0,22.26,0,25.58-.36,3.49-.36,5.48-.9,7-2.33,1.16-1.07,1.66-2,2.32-2s1.16.72,1.16,1.61-.33,3.41-1.16,11.11c-.33,3-.66,9.14-.66,10.22,0,1.25-.17,3.41-1.5,3.41-1,0-1.33-.54-1.33-1.26-.17-1.61-.17-3.59-.5-5.56-.83-3-2.66-5.38-8.14-5.92-2.66-.36-19.27-.72-22.93-.72-.66,0-.83.72-.83,1.61v12.19c0,5.2-.17,18.11,0,22.59.33,10.4,4.82,12.73,19.77,12.73,3.82,0,10-.18,13.79-2,3.65-1.79,5.31-5,6.31-11.29.33-1.61.67-2.33,1.66-2.33,1.16,0,1.33,2,1.33,3.59a110.85,110.85,0,0,1-2,16.85c-1,3.94-2.32,3.94-7.81,3.94-11,0-19.77-.18-26.91-.54-7.14-.18-12.62-.36-16.94-.36-1.66,0-4.82.18-8.31.18-3.49.18-7.14.36-10.13.36-1.83,0-2.82-.54-2.82-1.61,0-.72.5-1.61,2.33-1.61a20,20,0,0,0,5.15-.54c3-.72,3.82-3.59,4.32-8.07.67-6.45.67-18.46.67-32.45Z" transform="translate(-31.12 -268.35)"/><path class="cls-2" d="M514.38,946.93c0,22.95,0,35.32,3.49,38.54,2.82,2.69,7.14,3.94,20.1,3.94,8.81,0,15.28-.18,19.44-5a23.4,23.4,0,0,0,4.32-10.76c.17-1.61.5-2.69,1.83-2.69,1.16,0,1.33.9,1.33,3,0,2-1.16,15.42-2.49,20.61-1,3.94-1.83,4.84-10.47,4.84-12,0-20.6-.36-28.08-.54-7.48-.36-13.46-.54-20.27-.54-1.83,0-5.48,0-9.47.18-3.82,0-8.14.36-11.46.36-2.16,0-3.32-.54-3.32-1.79,0-.9.66-1.43,2.66-1.43a25.21,25.21,0,0,0,6-.72c3.32-.72,4.15-4.66,4.82-9.86.83-7.53.83-21.69.83-38.18V915.38c0-27.25,0-32.27-.33-38-.33-6.1-1.66-9-7.14-10.22a22.89,22.89,0,0,0-5.48-.54c-1.83,0-2.82-.36-2.82-1.61s1.16-1.61,3.65-1.61c7.81,0,18.27.54,22.76.54,4,0,16.11-.54,22.59-.54,2.33,0,3.49.36,3.49,1.61s-1,1.61-3,1.61a41,41,0,0,0-6.48.54c-4.49.9-5.81,3.94-6.15,10.22-.33,5.74-.33,10.76-.33,38Z" transform="translate(-31.12 -268.35)"/><path class="cls-2" d="M606.75,960.37c-.83,0-1,.18-1.33,1.07l-7.81,20.62a29.43,29.43,0,0,0-2.16,9.32c0,2.69,1.33,4.3,5.82,4.3h2.16c1.83,0,2.16.72,2.16,1.61,0,1.25-.83,1.61-2.33,1.61-4.82,0-11.63-.54-16.28-.54-1.5,0-9.3.54-16.95.54-1.83,0-2.66-.36-2.66-1.61a1.5,1.5,0,0,1,1.66-1.61c1.33,0,3-.18,4.32-.18,6.65-1.08,9.14-5.74,12.13-13.45l38.21-95.19c1.66-4.3,2.82-6.09,4.32-6.09,2.16,0,2.82,1.43,4.32,4.84,3.49,8.43,27.91,70.09,37.21,93.22,5.65,13.8,9.8,15.77,12.46,16.31a32.67,32.67,0,0,0,5.48.54q2,0,2,1.61c0,1.25-.83,1.61-6.31,1.61-5.15,0-15.78,0-28.08-.36-2.66-.18-4.32-.18-4.32-1.25,0-.9.33-1.44,1.83-1.61,1-.18,2-1.61,1.33-3.41l-11.3-30.83a1.39,1.39,0,0,0-1.5-1.07ZM638,951.95c.67,0,.83-.36.67-.9l-13.79-38.18c-.17-.54-.33-1.43-.66-1.43-.5,0-.67.9-.83,1.43l-14.12,38c-.33.72,0,1.08.5,1.08Z" transform="translate(-31.12 -268.35)"/><path class="cls-2" d="M690.81,898.53c-1.83-5.56-3-9.14-5.15-10.58-1.5-1.08-4.32-1.26-5.65-1.26-1.49,0-2.32-.54-2.32-1.61s1.16-1.43,3.32-1.43c7.48,0,15.62.36,16.94.36s8.47-.36,16.94-.36c2.16,0,3.16.36,3.16,1.43s-1.16,1.61-2.66,1.61a8.84,8.84,0,0,0-3.65.72c-1.33.54-1.5,1.43-1.5,3,0,2,1.33,7,3.16,14,2.49,10,15.78,56.11,17.94,63.1h.5l27.91-78c1.5-4.3,3-5.56,4.32-5.56,1.66,0,3,2.33,4.82,7.17l29.24,75.29h.5c2.82-8.78,14-48.94,19.11-66.69a35.22,35.22,0,0,0,1.5-8.78c0-2.51-1.33-4.3-7.14-4.3-1.33,0-2.49-.72-2.49-1.61,0-1.07,1.16-1.43,3.49-1.43,7.64,0,14.29.36,15.62.36,1,0,7.31-.36,12.13-.36,1.66,0,2.66.36,2.66,1.26,0,1.07-.67,1.79-2,1.79a17.72,17.72,0,0,0-5.15.72c-3.49,1.43-5.15,7.17-8.14,16-6.81,19.18-21.76,67.58-28.91,90.35-1.66,5.38-2.49,7.17-4.65,7.17-2,0-3-1.79-5.15-7.35l-29.74-75.29h-.33c-2.49,6.45-22.1,60.59-28.08,74.58-2.66,6.28-3.49,8.07-5.65,8.07-1.83,0-2.66-1.61-4-5.56Z" transform="translate(-31.12 -268.35)"/><path class="cls-2" d="M910.6,931.15c0-30.66,18.77-70.27,68.61-70.27,41.37,0,67.12,26,67.12,67s-26.58,73.5-68.78,73.5C929.87,1001.43,910.6,962.88,910.6,931.15Zm112.47,3.41c0-40.16-21.43-65.07-48.68-65.07-19.1,0-40.87,11.47-40.87,56.11,0,37.29,19.11,66.87,51,66.87C996.16,992.46,1023.07,986.37,1023.07,934.56Z" transform="translate(-31.12 -268.35)"/><path class="cls-2" d="M1098.67,955.17c0,14.7.16,25.46.83,31.91.5,4.48,1.5,7.35,5.82,8.07a47.87,47.87,0,0,0,7.14.54c1.83,0,2.49.9,2.49,1.61,0,1.07-1,1.61-3.15,1.61-9.3,0-19.61-.54-23.43-.54s-13.13.54-18.6.54c-2,0-3-.36-3-1.61,0-.72.5-1.61,2.16-1.61a20,20,0,0,0,5.15-.54c3-.72,3.82-3.59,4.32-8.07.66-6.45.66-17.75.66-32.45V927.75c0-23.13,0-27.43-.16-32.27-.33-5.2-1.66-7-6.31-8.25a25.05,25.05,0,0,0-5.82-.54c-1.33,0-2.49-.54-2.49-1.61s1.16-1.43,3.49-1.43c7.47,0,16.78.36,20.93.36,5.65,0,38,.18,41.53,0a37.56,37.56,0,0,0,6-.72c.83-.18,1.5-.9,2.33-.9.5,0,1,.72,1,1.43,0,1.08-.66,2.87-1.16,6.81-.17,1.61-.5,10.58-.67,12.37-.17,1.26-.5,3-1.5,3s-1.83-.72-1.83-2.51a13,13,0,0,0-.83-5.74c-1-2.15-3.82-4.48-9.3-4.66l-24.25-.54c-.83,0-1.33.36-1.33,2.15v36.93c0,.9.16,1.43,1,1.43l20.43-.18c2.49,0,4.49,0,6.64-.18,2.66-.18,4.82-.72,6.15-2.69.83-.9,1.17-1.61,2-1.61.5,0,.83.54.83,1.43s-.66,5-1.16,9.86c-.33,3-.5,10-.5,11.11,0,1.26-.17,3.41-1.66,3.41-.83,0-1.33-1.07-1.33-2.15a14.9,14.9,0,0,0-1-4.66,7.58,7.58,0,0,0-7-5.56c-3.65-.36-20.93-.54-23.42-.54-.67,0-1,.18-1,1.26Z" transform="translate(-31.12 -268.35)"/><path class="cls-2" d="M1195.86,955.17c0,14.7.16,25.46.83,31.91.5,4.48,1.5,7.35,5.82,8.07a47.87,47.87,0,0,0,7.14.54c1.83,0,2.49.9,2.49,1.61,0,1.07-1,1.61-3.15,1.61-9.3,0-19.61-.54-23.43-.54s-13.13.54-18.6.54c-2,0-3-.36-3-1.61,0-.72.5-1.61,2.16-1.61a20,20,0,0,0,5.15-.54c3-.72,3.82-3.59,4.32-8.07.66-6.45.66-17.75.66-32.45V927.75c0-23.13,0-27.43-.16-32.27-.33-5.2-1.66-7-6.31-8.25a25.05,25.05,0,0,0-5.82-.54c-1.33,0-2.49-.54-2.49-1.61s1.16-1.43,3.49-1.43c7.47,0,16.78.36,20.93.36,5.65,0,38,.18,41.53,0a37.56,37.56,0,0,0,6-.72c.83-.18,1.5-.9,2.33-.9.5,0,1,.72,1,1.43,0,1.08-.66,2.87-1.16,6.81-.17,1.61-.5,10.58-.67,12.37-.17,1.26-.5,3-1.5,3s-1.83-.72-1.83-2.51a13,13,0,0,0-.83-5.74c-1-2.15-3.82-4.48-9.3-4.66l-24.25-.54c-.83,0-1.33.36-1.33,2.15v36.93c0,.9.16,1.43,1,1.43l20.43-.18c2.49,0,4.49,0,6.64-.18,2.66-.18,4.82-.72,6.15-2.69.83-.9,1.17-1.61,2-1.61.5,0,.83.54.83,1.43s-.66,5-1.16,9.86c-.33,3-.5,10-.5,11.11,0,1.26-.17,3.41-1.66,3.41-.83,0-1.33-1.07-1.33-2.15a14.9,14.9,0,0,0-1-4.66,7.58,7.58,0,0,0-7-5.56c-3.65-.36-20.93-.54-23.42-.54-.67,0-1,.18-1,1.26Z" transform="translate(-31.12 -268.35)"/><path class="cls-2" d="M1273.44,927.75c0-23.13,0-27.43-.16-32.27-.33-5.2-1.83-7-5-8.07a17.35,17.35,0,0,0-5.32-.72c-1.49,0-2.33-.36-2.33-1.79,0-.9,1.17-1.26,3.49-1.26,5.48,0,15.45.36,19.6.36,3.66,0,13.13-.36,18.77-.36,1.83,0,3,.36,3,1.26,0,1.43-.83,1.79-2.33,1.79a18.88,18.88,0,0,0-4.32.54c-4,.72-5.15,2.87-5.48,8.25-.33,4.84-.33,9.14-.33,32.27v26.89c0,14.7,0,26.89.66,33.34.5,4.12,1.49,6.45,5.82,7.17a50.66,50.66,0,0,0,7.47.54c1.66,0,2.33.9,2.33,1.61,0,1.07-1.16,1.61-2.82,1.61-9.63,0-19.6-.54-23.59-.54-3.32,0-13.29.54-19.11.54-1.83,0-2.82-.54-2.82-1.61,0-.72.5-1.61,2.33-1.61a20,20,0,0,0,5.15-.54c3-.72,3.82-2.87,4.32-7.35.66-6.27.66-18.46.66-33.16Z" transform="translate(-31.12 -268.35)"/><path class="cls-2" d="M1348,984.39c-14.46-13.09-18.28-30.3-18.28-45,0-10.4,3.16-28.32,17.11-41.77,10.63-10,24.59-16.13,46.35-16.13a139.22,139.22,0,0,1,21.26,1.61c5.48.9,10.3,2,14.62,2.51,1.66.18,2.16.9,2.16,1.79,0,1.25-.33,3-.66,8.43-.33,5-.33,13.44-.5,16.49-.16,2.15-.66,3.77-2,3.77-1.16,0-1.49-1.26-1.49-3.23A22.33,22.33,0,0,0,1421,898.7c-5-5.2-14.78-9-28.24-9-12.79,0-20.93,2.51-27.58,8.6-10.8,10-13.45,24.74-13.45,39.62,0,36.21,25.91,53.42,45.52,53.42,13,0,20.1-1.07,25.92-8.07a25.37,25.37,0,0,0,5-10.22c.33-2.33.67-3,1.83-3,1,0,1.66,1.43,1.66,2.69,0,1.79-1.66,15.06-3.16,20.26-.66,2.69-1.33,3.41-3.82,4.48-5.81,2.51-16.95,3.41-26.42,3.41C1378.27,1000.89,1361.33,996.41,1348,984.39Z" transform="translate(-31.12 -268.35)"/><path class="cls-2" d="M1469.14,927.75c0-23.13,0-27.43-.16-32.27-.33-5.2-1.66-6.81-6.31-8.25a25.05,25.05,0,0,0-5.82-.54c-1.49,0-2.49-.54-2.49-1.61s1.17-1.43,3.32-1.43c7.64,0,16.95.36,21.1.36,4.65,0,37,.18,39.87,0a58,58,0,0,0,6.15-.9,16.13,16.13,0,0,1,2.33-.72c.83,0,1,.72,1,1.43,0,1.08-.83,2.87-1.16,9.86-.17,1.61-.5,8.25-.83,10-.16.72-.5,2.51-1.66,2.51-1,0-1.16-.72-1.16-2a15.28,15.28,0,0,0-1-5.56c-1.17-2.69-2.33-4.84-9.64-5.56-2.49-.36-19.93-.72-22.92-.72-.66,0-1,.54-1,1.43v37.65c0,.9.16,1.61,1,1.61,3.32,0,22.26,0,25.58-.36,3.49-.36,5.48-.9,7-2.33,1.16-1.07,1.66-2,2.33-2s1.16.72,1.16,1.61-.33,3.41-1.16,11.11c-.33,3-.67,9.14-.67,10.22,0,1.25-.16,3.41-1.49,3.41-1,0-1.33-.54-1.33-1.26-.16-1.61-.16-3.59-.5-5.56-.83-3-2.65-5.38-8.14-5.92-2.65-.36-19.27-.72-22.92-.72-.67,0-.83.72-.83,1.61v12.19c0,5.2-.16,18.11,0,22.59.33,10.4,4.82,12.73,19.77,12.73,3.82,0,10-.18,13.79-2,3.66-1.79,5.31-5,6.31-11.29.33-1.61.67-2.33,1.66-2.33,1.16,0,1.33,2,1.33,3.59a110.68,110.68,0,0,1-2,16.85c-1,3.94-2.33,3.94-7.81,3.94-11,0-19.77-.18-26.91-.54-7.14-.18-12.63-.36-16.95-.36-1.66,0-4.82.18-8.31.18-3.49.18-7.14.36-10.13.36-1.83,0-2.82-.54-2.82-1.61,0-.72.5-1.61,2.33-1.61a20,20,0,0,0,5.15-.54c3-.72,3.82-3.59,4.32-8.07.66-6.45.66-18.46.66-32.45Z" transform="translate(-31.12 -268.35)"/><path class="cls-2" d="M1563.17,996.94c-2.32-1.08-2.82-1.79-2.82-5.2,0-8.25.66-17.75.83-20.26,0-2.33.67-3.94,1.83-3.94,1.33,0,1.49,1.43,1.49,2.51a30.37,30.37,0,0,0,1.33,7.89C1569,989.23,1580,993,1589.09,993c12.63,0,20.27-8.61,20.27-19.36,0-6.63-1.49-13.27-14.45-21.51l-8.47-5.38c-17.28-10.94-22.93-21.15-22.93-34.6,0-18.65,16.61-30.66,36.88-30.66a80.64,80.64,0,0,1,20.77,2.51c1.33.36,2,.9,2,2,0,2-.5,6.28-.5,18.29,0,3.23-.66,4.84-1.83,4.84q-1.49,0-1.49-2.69a18,18,0,0,0-3.82-10c-2.16-2.87-6.81-7.17-16.28-7.17-10.47,0-19.93,5.92-19.93,16.31,0,6.81,2.33,12.19,15.45,20.08l6,3.59C1620,940.65,1626,952.31,1626,966.11c0,11.29-4,20.44-14.62,28.5-7,5.38-16.61,6.28-24.42,6.28C1578.46,1000.89,1569.49,1000,1563.17,996.94Z" transform="translate(-31.12 -268.35)"/><path class="cls-2" d="M1707.38,941.19c0-26,16.94-59.7,61.3-59.7,36.88,0,59.81,22.05,59.81,57s-23.59,62.39-61.3,62.39C1724.65,1000.89,1707.38,968.26,1707.38,941.19Zm99.34,2.87c0-33.7-18.77-54.5-42.37-54.5-16.28,0-35.39,9.32-35.39,47,0,31.37,16.61,56.11,44.19,56.11C1783.47,992.64,1806.72,987.44,1806.72,944.06Z" transform="translate(-31.12 -268.35)"/><path class="cls-2" d="M1881.65,955.17c0,14.7.16,25.46.83,31.91.5,4.48,1.49,7.35,5.81,8.07a47.87,47.87,0,0,0,7.14.54c1.83,0,2.49.9,2.49,1.61,0,1.07-1,1.61-3.15,1.61-9.3,0-19.61-.54-23.43-.54s-13.13.54-18.6.54c-2,0-3-.36-3-1.61,0-.72.5-1.61,2.16-1.61a20,20,0,0,0,5.15-.54c3-.72,3.82-3.59,4.32-8.07.66-6.45.66-17.75.66-32.45V927.75c0-23.13,0-27.43-.16-32.27-.33-5.2-1.66-7-6.31-8.25a25.05,25.05,0,0,0-5.82-.54c-1.32,0-2.49-.54-2.49-1.61s1.17-1.43,3.49-1.43c7.48,0,16.78.36,20.94.36,5.65,0,38,.18,41.53,0a37.56,37.56,0,0,0,6-.72c.83-.18,1.49-.9,2.33-.9.5,0,1,.72,1,1.43,0,1.08-.66,2.87-1.16,6.81-.16,1.61-.5,10.58-.67,12.37-.16,1.26-.5,3-1.49,3s-1.83-.72-1.83-2.51a13,13,0,0,0-.83-5.74c-1-2.15-3.82-4.48-9.3-4.66l-24.25-.54c-.83,0-1.33.36-1.33,2.15v36.93c0,.9.16,1.43,1,1.43l20.43-.18c2.49,0,4.49,0,6.64-.18,2.66-.18,4.82-.72,6.15-2.69.83-.9,1.17-1.61,2-1.61.5,0,.83.54.83,1.43s-.66,5-1.16,9.86c-.33,3-.5,10-.5,11.11,0,1.26-.17,3.41-1.66,3.41-.83,0-1.33-1.07-1.33-2.15a14.89,14.89,0,0,0-1-4.66,7.58,7.58,0,0,0-7-5.56c-3.66-.36-20.94-.54-23.43-.54-.66,0-1,.18-1,1.26Z" transform="translate(-31.12 -268.35)"/><path class="cls-1" d="M1090.13,301.19a3.15,3.15,0,0,0,.36.23c6.39,3.32,7.79,9.21,7.71,16.21-.23,20.72-1.28,41.4-2.86,62-.48,6.25-.91,12.6-3.15,18.53-.86,2.28-2.05,4.46-4.75,4-2.5-.46-2.75-2.81-2.84-5-.13-3.15-.23-6.31-.35-9.46-.42-10.49-1.85-20.76-5.61-30.54-12.84-33.41-52.25-55.58-86.88-49.12-31.22,5.82-53.14,23.47-61.45,57.31-5.79,23.57-3.46,46.91,5.56,69.33,10.31,25.63,26.29,47.14,42.83,68.23,47.16,60.15,101.27,112.65,155.69,164.83,3.47,3.32,4.94,2.69,7.13-1.08a203.08,203.08,0,0,0,27.69-99.35c.58-28.52-12.56-43.23-38.78-44.52-3.6-.18-9.25.84-9.16-4.59.08-5.16,5.66-4.46,9.3-4.49a573.73,573.73,0,0,1,73.31,4.61c7.31.89,10.27,4.57,10.42,12.42a140.21,140.21,0,0,1-4.13,35.07c-9.87,41.66-28.49,78.58-52.66,112.43-2.37,3.32-3.28,5.22.57,8.21,7.85,6.1,15.12,13.06,22.88,19.3,26.36,21.21,53.39,41.24,84.13,54.65a51.86,51.86,0,0,0,5.66,2.08h261V301.19Zm326.51,421.23c-25.16,17.38-53.34,22.26-80,22.26-29.19,0-51.83-3.8-73.47-14.12-8.05-3.8-9.56-6.52-9.56-18.46,0-29.87,2-62.45,2.52-71.14.5-8.15,2-14.12,6-14.12,4.53,0,5,4.89,5,9.23,0,7.06,2,18.46,4.53,27.69,11.07,40.18,40.76,54.85,72,54.85,45.29,0,67.43-33.13,67.43-61.91,0-26.61-7.55-51.59-49.32-86.88l-23.15-19.55c-55.36-46.7-74.48-84.71-74.48-128.7,0-59.73,46.3-102.63,116.25-102.63,32.71,0,53.85,5.43,66.93,9.23,4.53,1.09,7,2.72,7,6.52,0,7.06-2,22.81-2,65.16,0,11.95-1.51,16.29-5.54,16.29-3.52,0-5-3.26-5-9.77,0-4.89-2.52-21.72-13.08-35.84-7.55-10.32-22.14-26.61-54.85-26.61-37.24,0-59.88,23.35-59.88,55.93,0,25,11.57,44,53.34,78.2l14.09,11.4c60.89,49.42,82.53,86.88,82.53,138.47C1463.94,659.42,1452.87,696.89,1416.64,722.41Z" transform="translate(-31.12 -268.35)"/><path class="cls-1" d="M426.72,301.19V762.44H880.88c-.19-.16-.38-.33-.58-.48A146.55,146.55,0,0,1,843.66,721c-23.74-44-27.67-105.19-.12-155.3,16.43-29.89,39.89-52.14,67.15-70,3.9-2.55,5.19-4.1,1.89-8.57-5.46-7.4-9.68-15.76-13.6-24.24-10.17-22-15.31-45.3-12.23-69.81,3.74-29.72,18.52-53,38.92-72.62,8-7.72,17.2-13.56,26.42-19.34Zm409.63,242c-4,0-7.55.54-13.59,1.63-13.59,2.72-18.62,11.95-19.12,31-.5,16.29-.5,38-.5,65.16v59.73c0,14.66-.5,15.75-6.54,19.55-32.71,18.46-82,24.44-121.28,24.44-123.29,0-232.49-63-232.49-212.87,0-86.88,41.77-147.7,87.56-177.57,48.31-31.5,93.1-35.3,135.37-35.3,34.72,0,79,6.52,89.07,8.69,10.57,2.17,28.18,5.43,39.76,6,6,.54,7,2.72,7,6.52,0,6-3.52,21.18-3.52,89.06,0,8.69-1.51,11.4-5.54,11.4-3.52,0-4.53-2.72-5-7.06-1.51-12.49-4-29.87-17.11-45.07-15.1-17.38-55.36-42.36-112.22-42.36-27.68,0-64.41,2.17-99.64,33.67-28.18,25.52-46.3,66.25-46.3,133C512.28,629.56,581.22,717,687.4,717c13.08,0,30.7,0,42.77-6,7.55-3.8,9.56-10.86,9.56-20.09v-51c0-27.15,0-47.79-.5-64.08-.5-18.46-5-27.15-21.64-31-4-1.09-12.58-1.63-19.63-1.63-4.53,0-7.55-1.09-7.55-4.34,0-4.34,3.52-5.43,10.57-5.43,26.17,0,57.87,1.63,73,1.63,15.6,0,42.27-1.63,58.88-1.63,6.54,0,10.07,1.09,10.07,5.43C842.9,542.13,839.88,543.21,836.36,543.21Z" transform="translate(-31.12 -268.35)"/><path class="cls-1" d="M1103.57,705c-21.11-18.6-41.14-38.52-61.25-58.34-41.8-41.2-80.49-85.51-114.95-134-2.5-3.53-4.08-2.47-6.59-.58-33.86,25.53-50.48,60.67-50,105.12,0,5.13-.27,10.28.08,15.38a115.82,115.82,0,0,0,2,14.6c9.71,49.18,35.14,84.12,79.65,101.38,23,8.91,46.67,8.35,70.36,4.24a148.66,148.66,0,0,0,80.91-41.56C1106.34,708.62,1106.26,707.34,1103.57,705Z" transform="translate(-31.12 -268.35)"/><path class="cls-1" d="M1125.19,722.2c-2-1.67-3.27-1.54-5.06.36-4.56,4.82-9.22,9.54-14,14.07a204.11,204.11,0,0,1-34.41,25.8h106.19c-9.51-6.14-17.89-12.18-26-18.6Q1138.42,733.18,1125.19,722.2Z" transform="translate(-31.12 -268.35)"/><path class="cls-3" d="M1573.15,795.27H385.29V268.35H1573.15ZM404.28,774.77H1554.16V288.85H404.28Z" transform="translate(-31.12 -268.35)"/><path class="cls-4" d="M1441.8,406.37c0,6.52,1.51,9.77,5,9.77,4,0,5.54-4.34,5.54-16.29,0-6.64,0-12.62.13-18q-6.43,5.56-13,11.06A56.28,56.28,0,0,1,1441.8,406.37Z" transform="translate(-31.12 -268.35)"/><path class="cls-5" d="M687.4,717c13.08,0,30.7,0,42.77-6,7.55-3.8,9.56-10.86,9.56-20.09V665.27c-63.41,3.35-124,.74-180.47-7.52C589.8,694.75,633.87,717,687.4,717Z" transform="translate(-31.12 -268.35)"/><path class="cls-6" d="M803.15,700.69c0,14.66-.5,15.75-6.54,19.55-32.71,18.46-82,24.44-121.28,24.44-88.68,0-170.07-32.59-208.78-106.66q-20.46-5.85-39.82-12.84V762.44H880.88c-.19-.16-.38-.33-.58-.48A146.55,146.55,0,0,1,843.66,721,165,165,0,0,1,825,657.34q-11,1.45-21.85,2.67Z" transform="translate(-31.12 -268.35)"/><path class="cls-7" d="M952.48,748.5c23,8.91,46.67,8.35,70.36,4.24a148.66,148.66,0,0,0,80.91-41.56c2.6-2.56,2.51-3.84-.18-6.21-21.11-18.6-41.14-38.52-61.25-58.34q-14.87-14.66-29.2-29.86A1238.49,1238.49,0,0,1,873.4,649.88C883.51,697.6,908.8,731.57,952.48,748.5Z" transform="translate(-31.12 -268.35)"/><path class="cls-1" d="M1452.5,381.83c-.08,5.4-.13,11.39-.13,18,0,11.95-1.51,16.29-5.54,16.29-3.52,0-5-3.26-5-9.77a56.28,56.28,0,0,0-2.31-13.48,1057.07,1057.07,0,0,1-91.61,68.3c5.61,5.22,12,10.8,19.44,16.86l14.09,11.4c60.89,49.42,82.53,86.88,82.53,138.47,0,31.5-11.07,69-47.3,94.49-25.16,17.38-53.34,22.26-80,22.26-29.19,0-51.83-3.8-73.47-14.12-8.05-3.8-9.56-6.52-9.56-18.46,0-29.87,2-62.45,2.52-71.14.5-8.15,2-14.12,6-14.12,4.53,0,5,4.89,5,9.23,0,7.06,2,18.46,4.53,27.69,11.07,40.18,40.76,54.85,72,54.85,45.29,0,67.43-33.13,67.43-61.91,0-26.61-7.55-51.59-49.32-86.88l-23.15-19.55c-21.92-18.49-38.14-35.62-49.76-52.3q-36.09,21-74.72,40.08a147.75,147.75,0,0,1-4,27.71c-9.87,41.66-28.49,78.58-52.66,112.43-2.37,3.32-3.28,5.22.57,8.21,7.85,6.1,15.12,13.06,22.88,19.3,26.36,21.21,53.39,41.24,84.13,54.65a51.86,51.86,0,0,0,5.66,2.08h261V304.37A885.29,885.29,0,0,1,1452.5,381.83Z" transform="translate(-31.12 -268.35)"/><path class="cls-1" d="M1134.37,667.7c3.47,3.32,4.94,2.69,7.13-1.08a203.08,203.08,0,0,0,27.69-99.35,77.61,77.61,0,0,0-.27-8q-50.11,22.26-103.67,40.78C1087.88,623,1111.09,645.39,1134.37,667.7Z" transform="translate(-31.12 -268.35)"/><path class="cls-1" d="M1125.19,722.2c-2-1.67-3.27-1.54-5.06.36-4.56,4.82-9.22,9.54-14,14.07a204.11,204.11,0,0,1-34.41,25.8h106.19c-9.51-6.14-17.89-12.18-26-18.6Q1138.42,733.18,1125.19,722.2Z" transform="translate(-31.12 -268.35)"/><path class="cls-8" d="M1373.87,343.92c-37.24,0-59.88,23.35-59.88,55.93,0,20.56,7.86,37.07,33.91,61.34a1057.07,1057.07,0,0,0,91.61-68.3,68.54,68.54,0,0,0-10.78-22.36C1421.17,360.21,1406.58,343.92,1373.87,343.92Z" transform="translate(-31.12 -268.35)"/><path class="cls-9" d="M1264.16,421.58c0-59.73,46.3-102.63,116.25-102.63,32.71,0,53.85,5.43,66.93,9.23,4.53,1.09,7,2.72,7,6.52,0,6-1.43,18.08-1.88,47.14a885.29,885.29,0,0,0,79.21-77.46v-3.18H1090.13a3.14,3.14,0,0,0,.36.23c6.39,3.32,7.79,9.21,7.71,16.21-.23,20.72-1.28,41.4-2.87,62-.48,6.25-.91,12.6-3.15,18.53-.86,2.28-2.05,4.46-4.75,4-2.5-.46-2.75-2.81-2.84-5-.13-3.15-.23-6.31-.35-9.46-.42-10.49-1.85-20.76-5.61-30.54-12.84-33.41-52.25-55.58-86.88-49.12-31.22,5.82-53.14,23.47-61.45,57.31-5.79,23.57-3.46,46.91,5.56,69.33,10.31,25.63,26.29,47.14,42.83,68.23,27,34.43,56.27,66.34,86.57,97.13q53.49-18.44,103.67-40.78C1167,536,1154,523.9,1130.41,522.74c-3.6-.18-9.25.84-9.16-4.59.08-5.16,5.66-4.46,9.3-4.49a573.73,573.73,0,0,1,73.31,4.61c7.31.89,10.27,4.57,10.42,12.42,0,2.46,0,4.91-.11,7.36q38.6-19,74.72-40.08C1271.16,472.53,1264.16,448.14,1264.16,421.58Z" transform="translate(-31.12 -268.35)"/><path class="cls-10" d="M843.53,565.74c16.43-29.89,39.89-52.14,67.15-70,3.9-2.55,5.19-4.1,1.89-8.57-5.46-7.4-9.68-15.76-13.6-24.24-10.17-22-15.31-45.3-12.23-69.81,3.74-29.72,18.52-53,38.92-72.62,8-7.72,17.2-13.56,26.42-19.34H426.72v324q19.35,7,39.82,12.84c-15.11-28.91-23.71-64.13-23.71-106.21,0-86.88,41.77-147.7,87.56-177.57,48.31-31.5,93.1-35.3,135.37-35.3,34.72,0,79,6.52,89.07,8.69,10.57,2.17,28.18,5.43,39.76,6,6,.54,7,2.72,7,6.52,0,6-3.52,21.18-3.52,89.06,0,8.69-1.51,11.4-5.54,11.4-3.52,0-4.53-2.72-5-7.06-1.51-12.49-4-29.87-17.11-45.07-15.1-17.38-55.36-42.36-112.22-42.36-27.68,0-64.41,2.17-99.64,33.67-28.18,25.52-46.3,66.25-46.3,133,0,57.88,17,108.55,47,144.94,56.43,8.26,117.07,10.87,180.47,7.52V639.87c0-27.15,0-47.79-.5-64.08-.5-18.46-5-27.15-21.64-31-4-1.09-12.58-1.63-19.63-1.63-4.53,0-7.55-1.09-7.55-4.34,0-4.34,3.52-5.43,10.57-5.43,26.17,0,57.87,1.63,73,1.63,15.6,0,42.27-1.63,58.88-1.63,6.54,0,10.07,1.09,10.07,5.43,0,3.26-3,4.34-6.54,4.34-4,0-7.55.54-13.59,1.63-13.59,2.72-18.62,11.95-19.12,31-.5,16.29-.5,38-.5,65.16v19Q814,658.79,825,657.34C822.33,626.71,827.77,594.41,843.53,565.74Z" transform="translate(-31.12 -268.35)"/><path class="cls-11" d="M927.37,512.6c-2.5-3.53-4.08-2.47-6.59-.58-33.86,25.53-50.48,60.67-50,105.12,0,5.13-.27,10.28.08,15.38a115.82,115.82,0,0,0,2,14.6c.18.93.38,1.84.58,2.75a1238.49,1238.49,0,0,0,139.71-33.11A976.73,976.73,0,0,1,927.37,512.6Z" transform="translate(-31.12 -268.35)"/></svg>